<svg id="Camada_1" data-name="Camada 1" xmlns="http://www.w3.org/2000/svg" xmlns:xlink="http://www.w3.org/1999/xlink" viewBox="0 0 500 300"><defs><style>.cls-1,.cls-6{fill:#fffad6;}.cls-1,.cls-14,.cls-16,.cls-18,.cls-2,.cls-20,.cls-21,.cls-5,.cls-7{stroke:#555659;}.cls-1,.cls-16,.cls-7{stroke-miterlimit:10;}.cls-1,.cls-14,.cls-16,.cls-17,.cls-2,.cls-20,.cls-21,.cls-5,.cls-7{stroke-width:2px;}.cls-12,.cls-2{fill:#ed6164;}.cls-14,.cls-17,.cls-18,.cls-2,.cls-20,.cls-21,.cls-4,.cls-5{stroke-linecap:round;stroke-linejoin:round;}.cls-14,.cls-3{fill:#fff;}.cls-18,.cls-4,.cls-5,.cls-7{fill:none;}.cls-4{stroke:#c9cbca;}.cls-8{clip-path:url(#clip-path);}.cls-9{fill:#e2a14c;}.cls-10{fill:#cfc5b2;}.cls-11,.cls-17{fill:#555659;}.cls-13{clip-path:url(#clip-path-2);}.cls-15{fill:#b2494b;}.cls-16,.cls-19,.cls-20{fill:#feafba;}.cls-17{stroke:#b2494b;}.cls-18{stroke-width:3px;}.cls-21{fill:#ed135c;}</style><clipPath id="clip-path"><path id="_Caminho_de_recorte_" data-name="&lt;Caminho de recorte&gt;" class="cls-1" d="M253.43,271.28c50.6,0,87.44,15.66,112.76.13A67,67,0,0,0,392,186.82l-22.34-49.64a72.65,72.65,0,0,0,1.88-46.89,17.86,17.86,0,0,0-23.2-11.8C338.45,82,324.94,89.1,310,103.22c0,0-23.42-6.82-56.55-6.82s-56.56,6.82-56.56,6.82C181.91,89.1,168.4,82,158.49,78.49a17.86,17.86,0,0,0-23.2,11.8,72.65,72.65,0,0,0,1.88,46.89l-22.34,49.64a67,67,0,0,0,25.84,84.59C166,286.94,202.82,271.28,253.43,271.28Z"/></clipPath><clipPath id="clip-path-2"><path id="_Caminho_de_recorte_2" data-name="&lt;Caminho de recorte&gt;" class="cls-2" d="M85.94,156.39S169,217.31,253.43,217.31s167.14-60.92,167.14-60.92L398,305H108.9Z"/></clipPath></defs><title>cat08</title><path class="cls-3" d="M461.39,178.05a125.68,125.68,0,0,0-48.84-9.54c-2.19,0-4.4.06-6.61.16L391.41,136.4A93.43,93.43,0,0,0,391,85a38.22,38.22,0,0,0-49.59-25.31,116.64,116.64,0,0,0-26.19,13.49v-.72a20.3,20.3,0,0,0-18.31-19.9l1.17-21a20.35,20.35,0,0,0-33.37-16.76l-7.51,6.28L246.54,8.34a20.35,20.35,0,0,0-28.69-2.58L205.46,16.12a20.26,20.26,0,0,0-7.17,13.78,20.47,20.47,0,0,0,3.49,13.31,19.71,19.71,0,0,0-6,2.35,20.35,20.35,0,0,0-9.87,15.91l-.6,7.76a112.14,112.14,0,0,0-20-9.56A38.22,38.22,0,0,0,115.67,85a93.48,93.48,0,0,0-.39,51.43l-14.72,32.72q-6.6-.62-13.12-.61a125.76,125.76,0,0,0-48.87,9.55A20.35,20.35,0,0,0,43.71,217,20.4,20.4,0,0,0,45,239.53a20.37,20.37,0,0,0,27.77,4.55l-.36.49a20.35,20.35,0,0,0,16.46,32.32,20.43,20.43,0,0,0,16.47-8.39l.78-1.05a86.64,86.64,0,0,0,23.8,21.66c11,6.73,23.59,9.87,39.71,9.87,11.22,0,23.11-1.51,35.72-3.11,14.33-1.82,30.58-3.89,48-3.89s33.65,2.07,48,3.89c12.59,1.6,24.48,3.11,35.7,3.11,16.1,0,28.72-3.14,39.69-9.87a86,86,0,0,0,20.59-17.59,20.43,20.43,0,0,0,13.77,5.37,20.35,20.35,0,0,0,16.46-32.32l-.36-.5A20.35,20.35,0,0,0,455,239.56,20.4,20.4,0,0,0,456.28,217a20.35,20.35,0,0,0,5.11-38.94Z"/><path class="cls-4" d="M461.39,178.05a125.68,125.68,0,0,0-48.84-9.54c-2.19,0-4.4.06-6.61.16L391.41,136.4A93.43,93.43,0,0,0,391,85a38.22,38.22,0,0,0-49.59-25.31,116.64,116.64,0,0,0-26.19,13.49v-.72a20.3,20.3,0,0,0-18.31-19.9l1.17-21a20.35,20.35,0,0,0-33.37-16.76l-7.51,6.28L246.54,8.34a20.35,20.35,0,0,0-28.69-2.58L205.46,16.12a20.26,20.26,0,0,0-7.17,13.78,20.47,20.47,0,0,0,3.49,13.31,19.71,19.71,0,0,0-6,2.35,20.35,20.35,0,0,0-9.87,15.91l-.6,7.76a112.14,112.14,0,0,0-20-9.56A38.22,38.22,0,0,0,115.67,85a93.48,93.48,0,0,0-.39,51.43l-14.72,32.72q-6.6-.62-13.12-.61a125.76,125.76,0,0,0-48.87,9.55A20.35,20.35,0,0,0,43.71,217,20.4,20.4,0,0,0,45,239.53a20.37,20.37,0,0,0,27.77,4.55l-.36.49a20.35,20.35,0,0,0,16.46,32.32,20.43,20.43,0,0,0,16.47-8.39l.78-1.05a86.64,86.64,0,0,0,23.8,21.66c11,6.73,23.59,9.87,39.71,9.87,11.22,0,23.11-1.51,35.72-3.11,14.33-1.82,30.58-3.89,48-3.89s33.65,2.07,48,3.89c12.59,1.6,24.48,3.11,35.7,3.11,16.1,0,28.72-3.14,39.69-9.87a86,86,0,0,0,20.59-17.59,20.43,20.43,0,0,0,13.77,5.37,20.35,20.35,0,0,0,16.46-32.32l-.36-.5A20.35,20.35,0,0,0,455,239.56,20.4,20.4,0,0,0,456.28,217a20.35,20.35,0,0,0,5.11-38.94Z"/><path class="cls-5" d="M131.41,196.47s-42.44-17.77-84.87,0"/><path class="cls-5" d="M131.41,213.63s-39.23-10-70,13.31"/><path class="cls-5" d="M137.74,226.94s-27.52,0-48.77,29.24"/><path class="cls-5" d="M368.74,196.47s42.44-17.77,84.87,0"/><path class="cls-5" d="M368.74,213.63s39.23-10,70.05,13.31"/><path class="cls-5" d="M362.41,226.94s27.52,0,48.77,29.24"/><path id="_Caminho_de_recorte_3" data-name="&lt;Caminho de recorte&gt;" class="cls-6" d="M253.43,271.28c50.6,0,87.44,15.66,112.76.13A67,67,0,0,0,392,186.82l-22.34-49.64a72.65,72.65,0,0,0,1.88-46.89,17.86,17.86,0,0,0-23.2-11.8C338.45,82,324.94,89.1,310,103.22c0,0-23.42-6.82-56.55-6.82s-56.56,6.82-56.56,6.82C181.91,89.1,168.4,82,158.49,78.49a17.86,17.86,0,0,0-23.2,11.8,72.65,72.65,0,0,0,1.88,46.89l-22.34,49.64a67,67,0,0,0,25.84,84.59C166,286.94,202.82,271.28,253.43,271.28Z"/><path id="_Caminho_de_recorte_4" data-name="&lt;Caminho de recorte&gt;" class="cls-7" d="M253.43,271.28c50.6,0,87.44,15.66,112.76.13A67,67,0,0,0,392,186.82l-22.34-49.64a72.65,72.65,0,0,0,1.88-46.89,17.86,17.86,0,0,0-23.2-11.8C338.45,82,324.94,89.1,310,103.22c0,0-23.42-6.82-56.55-6.82s-56.56,6.82-56.56,6.82C181.91,89.1,168.4,82,158.49,78.49a17.86,17.86,0,0,0-23.2,11.8,72.65,72.65,0,0,0,1.88,46.89l-22.34,49.64a67,67,0,0,0,25.84,84.59C166,286.94,202.82,271.28,253.43,271.28Z"/><path id="_Caminho_de_recorte_5" data-name="&lt;Caminho de recorte&gt;" class="cls-6" d="M253.43,271.28c50.6,0,87.44,15.66,112.76.13A67,67,0,0,0,392,186.82l-22.34-49.64a72.65,72.65,0,0,0,1.88-46.89,17.86,17.86,0,0,0-23.2-11.8C338.45,82,324.94,89.1,310,103.22c0,0-23.42-6.82-56.55-6.82s-56.56,6.82-56.56,6.82C181.91,89.1,168.4,82,158.49,78.49a17.86,17.86,0,0,0-23.2,11.8,72.65,72.65,0,0,0,1.88,46.89l-22.34,49.64a67,67,0,0,0,25.84,84.59C166,286.94,202.82,271.28,253.43,271.28Z"/><g class="cls-8"><ellipse class="cls-9" cx="382.42" cy="71.35" rx="101.81" ry="101.96"/><ellipse class="cls-10" cx="125.92" cy="71.35" rx="101.81" ry="101.96"/><path class="cls-11" d="M242.27,83.7,249,143.59c.83,7.34,8,7.34,8.81,0l6.75-59.89Z"/><path class="cls-11" d="M224.18,82.05l2.28,22.47c.76,7.48,8.07,7.48,8.83,0l2.28-22.47Z"/><path class="cls-11" d="M282.68,82.05l-2.29,22.47c-.76,7.48-8.06,7.48-8.82,0l-2.28-22.47Z"/><path id="_Caminho_de_recorte_6" data-name="&lt;Caminho de recorte&gt;" class="cls-12" d="M85.94,156.39S169,217.31,253.43,217.31s167.14-60.92,167.14-60.92L398,305H108.9Z"/><g class="cls-13"><path class="cls-14" d="M151.27,186.82v27.81a4.52,4.52,0,0,0,7.52,3.38L179,200.1Z"/><path class="cls-14" d="M355.58,186.82v27.81a4.52,4.52,0,0,1-7.52,3.38L327.88,200.1Z"/></g><path id="_Caminho_de_recorte_7" data-name="&lt;Caminho de recorte&gt;" class="cls-5" d="M85.94,156.39S169,217.31,253.43,217.31s167.14-60.92,167.14-60.92L398,305H108.9Z"/><path class="cls-15" d="M259.2,224.56a4.53,4.53,0,0,0-4.92,5.73,13.18,13.18,0,0,1,.58,3c0,4.12-2,6-4.53,6s-4.52-1.9-4.52-6a13.63,13.63,0,0,1,.57-3,4.52,4.52,0,0,0-4.91-5.73c-13.61,1.89-23.59,8-23.59,15.3,0,8.79,14.53,15.92,32.45,15.92s32.45-7.13,32.45-15.92C282.78,232.58,272.8,226.45,259.2,224.56Z"/><ellipse class="cls-16" cx="253.09" cy="280.97" rx="52.75" ry="35.17"/></g><path id="_Caminho_de_recorte_8" data-name="&lt;Caminho de recorte&gt;" class="cls-7" d="M253.43,271.28c50.6,0,87.44,15.66,112.76.13A67,67,0,0,0,392,186.82l-22.34-49.64a72.65,72.65,0,0,0,1.88-46.89,17.86,17.86,0,0,0-23.2-11.8C338.45,82,324.94,89.1,310,103.22c0,0-23.42-6.82-56.55-6.82s-56.56,6.82-56.56,6.82C181.91,89.1,168.4,82,158.49,78.49a17.86,17.86,0,0,0-23.2,11.8,72.65,72.65,0,0,0,1.88,46.89l-22.34,49.64a67,67,0,0,0,25.84,84.59C166,286.94,202.82,271.28,253.43,271.28Z"/><path class="cls-17" d="M155.46,116.82c-.29,4.38.16,8.81-.13,13.18s-1.28,8.71-1.57,13.08-.15,8.79-.44,13.16-.91,8.73-1.19,13.11-.37,8.76-.65,13.13"/><path class="cls-17" d="M177.26,125.63c-.24,3.68-1.38,7.29-1.62,11s0,7.38-.26,11-.56,7.35-.81,11-.26,7.36-.51,11-1,7.31-1.25,11-.05,7.38-.3,11.05"/><path class="cls-17" d="M220.88,136.4c-.26,3.72-1.23,7.4-1.48,11.13s-.32,7.46-.58,11.18.13,7.5-.13,11.22-.54,7.45-.79,11.18-1.24,7.39-1.5,11.12-.49,7.44-.75,11.17"/><path class="cls-17" d="M198.87,132.14c-.25,3.7-1.4,7.34-1.66,11s.34,7.45.09,11.15-1.11,7.36-1.36,11.06-.7,7.38-.95,11.08-.4,7.4-.65,11.1-.49,7.4-.74,11.09"/><path class="cls-17" d="M265.65,138.18c-.26,3.78-1.29,7.51-1.55,11.28s-.64,7.55-.9,11.32.27,7.61,0,11.39-.53,7.55-.79,11.33-.36,7.56-.62,11.34-.72,7.53-1,11.31"/><path class="cls-17" d="M242.63,138.37c-.26,3.76-.08,7.54-.34,11.29s-.82,7.48-1.08,11.23,0,7.54-.21,11.29-1.42,7.44-1.67,11.19-.31,7.52-.57,11.26-.1,7.53-.36,11.28"/><path class="cls-17" d="M287.49,135.67c-.25,3.81-.94,7.58-1.2,11.38s.2,7.66-.05,11.46-.37,7.61-.63,11.42-1.15,7.56-1.4,11.36-.35,7.62-.61,11.42,0,7.64-.21,11.44"/><path class="cls-17" d="M309.34,130.93c-.25,3.83-.36,7.67-.61,11.5s-.15,7.68-.4,11.51-.65,7.65-.9,11.48-.38,7.66-.63,11.49-.89,7.63-1.14,11.46,0,7.68-.28,11.51"/><path class="cls-17" d="M330.6,123.94c-.24,3.85,0,7.74-.22,11.59s-.17,7.73-.41,11.59-.88,7.68-1.12,11.54-.64,7.7-.89,11.55-.26,7.72-.51,11.58-1,7.67-1.28,11.52"/><path class="cls-17" d="M352.48,114.77c-.24,3.88-.67,7.75-.9,11.63s-.35,7.77-.59,11.65-.76,7.74-1,11.63-.69,7.74-.93,11.62,0,7.79-.2,11.67-1,7.73-1.23,11.61"/><polyline class="cls-18" points="171.31 172.45 218.22 195.99 184.85 190.41"/><polyline class="cls-18" points="335.55 172.45 288.63 195.99 322 190.41"/><g id="_Grupo_" data-name="&lt;Grupo&gt;"><path class="cls-19" d="M146.18,116.76A61,61,0,0,1,148.38,94a4.42,4.42,0,0,1,4.28-3.2,4.76,4.76,0,0,1,1.56.28,84.43,84.43,0,0,1,19.25,10.11Z"/><path class="cls-20" d="M146.18,116.76A61,61,0,0,1,148.38,94a4.42,4.42,0,0,1,4.28-3.2,4.76,4.76,0,0,1,1.56.28,84.43,84.43,0,0,1,19.25,10.11Z"/><path class="cls-20" d="M360.67,116.76A61.2,61.2,0,0,0,358.48,94a4.43,4.43,0,0,0-4.29-3.2,4.66,4.66,0,0,0-1.55.28,84.46,84.46,0,0,0-19.26,10.11Z"/></g><line class="cls-12" x1="224.07" y1="182.16" x2="184.41" y2="144.42"/><path class="cls-11" d="M223.38,182.88l-39.44-38a.68.68,0,0,1,0-1,.69.69,0,0,1,1,0l39.88,37.51a1,1,0,1,1-1.37,1.46Z"/><line class="cls-12" x1="282.78" y1="182.16" x2="322.44" y2="144.42"/><path class="cls-11" d="M282.09,181.43,322,143.92a.7.7,0,0,1,1,0,.69.69,0,0,1,0,1l-39.44,38a1,1,0,0,1-1.42,0,1,1,0,0,1,0-1.41Z"/><polygon class="cls-21" points="230.99 21.02 254.74 49.42 277.85 30.09 276.62 52.1 252.72 72.09 218.64 31.35 230.99 21.02"/><polygon class="cls-21" points="255.46 105.47 257.88 78.26 294.96 72.43 295.18 86.83 275.09 88.8 275.43 99.25 255.46 105.47"/><polygon class="cls-21" points="215.95 102.84 229.89 119.51 244.07 79.32 206.26 62.69 204.97 79.45 221.52 88.22 215.95 102.84"/></svg>