<svg id="Camada_1" data-name="Camada 1" xmlns="http://www.w3.org/2000/svg" xmlns:xlink="http://www.w3.org/1999/xlink" viewBox="0 0 500 300"><defs><style>.cls-1,.cls-4{fill:#fffad6;}.cls-1,.cls-11,.cls-12,.cls-13,.cls-14,.cls-5{stroke:#555659;}.cls-1,.cls-5{stroke-miterlimit:10;}.cls-1,.cls-11,.cls-12,.cls-14,.cls-5{stroke-width:2px;}.cls-2{fill:#fff;}.cls-11,.cls-3,.cls-5{fill:none;}.cls-3{stroke:#c9cbca;}.cls-11,.cls-12,.cls-13,.cls-14,.cls-3{stroke-linecap:round;stroke-linejoin:round;}.cls-6{clip-path:url(#clip-path);}.cls-7{fill:#e2a14c;}.cls-8{fill:#cfc5b2;}.cls-13,.cls-14,.cls-9{fill:#555659;}.cls-10,.cls-12{fill:#feafba;}.cls-13{stroke-width:4px;}.cls-15{fill:#fef495;}</style><clipPath id="clip-path"><path id="_Caminho_de_recorte_" data-name="&lt;Caminho de recorte&gt;" class="cls-1" d="M250.08,230.53c50.6,0,87.44,15.66,112.76.13a67,67,0,0,0,25.83-84.59L366.34,96.44a72.7,72.7,0,0,0,1.87-46.89A17.85,17.85,0,0,0,345,37.74c-9.9,3.54-23.42,10.61-38.37,24.73,0,0-23.43-6.82-56.56-6.82s-56.56,6.82-56.56,6.82c-15-14.12-28.47-21.19-38.37-24.73A17.85,17.85,0,0,0,132,49.55a72.64,72.64,0,0,0,1.87,46.89l-22.34,49.63a67,67,0,0,0,25.84,84.59C162.64,246.19,199.48,230.53,250.08,230.53Z"/></clipPath></defs><title>cat07</title><path class="cls-2" d="M469.46,198.67c-18.22-13.46-37.81-19.92-54.64-22.84a88.28,88.28,0,0,0-1.16-16,20.35,20.35,0,0,0,9.31-8.08c1-1.53,6.18-4.5,12-4.5a8.58,8.58,0,0,1,3.72.62,20.34,20.34,0,0,0,8.94,2.87l.48.06h1.69a20.35,20.35,0,0,0,9.74-37.9c-.88-.74-2.72-3.21-3.7-7.22-1.07-4.32-.43-7.52,0-8.34A20.36,20.36,0,0,0,449,69.41a22.24,22.24,0,0,0-2.17-1.12,20.3,20.3,0,0,0-13.1-25c.05-.56.07-1.12.07-1.68a20.35,20.35,0,0,0-39.64-6.47c-.57,0-1.14-.07-1.7-.07a20.08,20.08,0,0,0-7.88,1.62,38.18,38.18,0,0,0-46.45-17.75c-12.68,4.53-38.84,18.2-38.84,18.2H278a267.4,267.4,0,0,0-56,0H200.76s-26.16-13.67-38.84-18.2a38.23,38.23,0,0,0-49.6,25.3,96.67,96.67,0,0,0-3.76,24.08,20.29,20.29,0,0,0-6.93,2.17,4.54,4.54,0,0,1-.66,0,10,10,0,0,1-5.71-1.81A20.35,20.35,0,0,0,59.75,88.58,10.38,10.38,0,0,1,58,94.88,20.35,20.35,0,0,0,68.3,132.76h0a20.51,20.51,0,0,0,9.46-2.33,4.65,4.65,0,0,1,.66,0,10,10,0,0,1,5.72,1.82,20.31,20.31,0,0,0,8,7.58,87.71,87.71,0,0,0-6.94,36c-16.83,2.93-36.44,9.39-54.68,22.87a20.35,20.35,0,0,0,12.13,36.7c.72,0,1.43,0,2.13-.11a20.35,20.35,0,0,0,34.67,19.4l-.24.57a20.36,20.36,0,0,0,37.68,15.42,53.55,53.55,0,0,1,13.76-20c10,5.16,21.49,7.59,35.67,7.59,11.22,0,23.11-1.51,35.72-3.11,14.33-1.82,30.58-3.88,48-3.88s33.65,2.06,48,3.88c12.6,1.6,24.49,3.11,35.7,3.11,14.17,0,25.63-2.43,35.66-7.59a53.54,53.54,0,0,1,13.78,20.07,20.36,20.36,0,0,0,37.67-15.45l-.24-.56a20.36,20.36,0,0,0,34.67-19.41c.7.07,1.41.11,2.13.11a20.36,20.36,0,0,0,12.09-36.73Z"/><path class="cls-3" d="M469.46,198.67c-18.22-13.46-37.81-19.92-54.64-22.84a88.28,88.28,0,0,0-1.16-16,20.35,20.35,0,0,0,9.31-8.08c1-1.53,6.18-4.5,12-4.5a8.58,8.58,0,0,1,3.72.62,20.34,20.34,0,0,0,8.94,2.87l.48.06h1.69a20.35,20.35,0,0,0,9.74-37.9c-.88-.74-2.72-3.21-3.7-7.22-1.07-4.32-.43-7.52,0-8.34A20.36,20.36,0,0,0,449,69.41a22.24,22.24,0,0,0-2.17-1.12,20.3,20.3,0,0,0-13.1-25c.05-.56.07-1.12.07-1.68a20.35,20.35,0,0,0-39.64-6.47c-.57,0-1.14-.07-1.7-.07a20.08,20.08,0,0,0-7.88,1.62,38.18,38.18,0,0,0-46.45-17.75c-12.68,4.53-38.84,18.2-38.84,18.2H278a267.4,267.4,0,0,0-56,0H200.76s-26.16-13.67-38.84-18.2a38.23,38.23,0,0,0-49.6,25.3,96.67,96.67,0,0,0-3.76,24.08,20.29,20.29,0,0,0-6.93,2.17,4.54,4.54,0,0,1-.66,0,10,10,0,0,1-5.71-1.81A20.35,20.35,0,0,0,59.75,88.58,10.38,10.38,0,0,1,58,94.88,20.35,20.35,0,0,0,68.3,132.76h0a20.51,20.51,0,0,0,9.46-2.33,4.65,4.65,0,0,1,.66,0,10,10,0,0,1,5.72,1.82,20.31,20.31,0,0,0,8,7.58,87.71,87.71,0,0,0-6.94,36c-16.83,2.93-36.44,9.39-54.68,22.87a20.35,20.35,0,0,0,12.13,36.7c.72,0,1.43,0,2.13-.11a20.35,20.35,0,0,0,34.67,19.4l-.24.57a20.36,20.36,0,0,0,37.68,15.42,53.55,53.55,0,0,1,13.76-20c10,5.16,21.49,7.59,35.67,7.59,11.22,0,23.11-1.51,35.72-3.11,14.33-1.82,30.58-3.88,48-3.88s33.65,2.06,48,3.88c12.6,1.6,24.49,3.11,35.7,3.11,14.17,0,25.63-2.43,35.66-7.59a53.54,53.54,0,0,1,13.78,20.07,20.36,20.36,0,0,0,37.67-15.45l-.24-.56a20.36,20.36,0,0,0,34.67-19.41c.7.07,1.41.11,2.13.11a20.36,20.36,0,0,0,12.09-36.73Z"/><path id="_Caminho_de_recorte_2" data-name="&lt;Caminho de recorte&gt;" class="cls-4" d="M250.08,230.53c50.6,0,87.44,15.66,112.76.13a67,67,0,0,0,25.83-84.59L366.34,96.44a72.7,72.7,0,0,0,1.87-46.89A17.85,17.85,0,0,0,345,37.74c-9.9,3.54-23.42,10.61-38.37,24.73,0,0-23.43-6.82-56.56-6.82s-56.56,6.82-56.56,6.82c-15-14.12-28.47-21.19-38.37-24.73A17.85,17.85,0,0,0,132,49.55a72.64,72.64,0,0,0,1.87,46.89l-22.34,49.63a67,67,0,0,0,25.84,84.59C162.64,246.19,199.48,230.53,250.08,230.53Z"/><path id="_Caminho_de_recorte_3" data-name="&lt;Caminho de recorte&gt;" class="cls-5" d="M250.08,230.53c50.6,0,87.44,15.66,112.76.13a67,67,0,0,0,25.83-84.59L366.34,96.44a72.7,72.7,0,0,0,1.87-46.89A17.85,17.85,0,0,0,345,37.74c-9.9,3.54-23.42,10.61-38.37,24.73,0,0-23.43-6.82-56.56-6.82s-56.56,6.82-56.56,6.82c-15-14.12-28.47-21.19-38.37-24.73A17.85,17.85,0,0,0,132,49.55a72.64,72.64,0,0,0,1.87,46.89l-22.34,49.63a67,67,0,0,0,25.84,84.59C162.64,246.19,199.48,230.53,250.08,230.53Z"/><path id="_Caminho_de_recorte_4" data-name="&lt;Caminho de recorte&gt;" class="cls-4" d="M250.08,230.53c50.6,0,87.44,15.66,112.76.13a67,67,0,0,0,25.83-84.59L366.34,96.44a72.7,72.7,0,0,0,1.87-46.89A17.85,17.85,0,0,0,345,37.74c-9.9,3.54-23.42,10.61-38.37,24.73,0,0-23.43-6.82-56.56-6.82s-56.56,6.82-56.56,6.82c-15-14.12-28.47-21.19-38.37-24.73A17.85,17.85,0,0,0,132,49.55a72.64,72.64,0,0,0,1.87,46.89l-22.34,49.63a67,67,0,0,0,25.84,84.59C162.64,246.19,199.48,230.53,250.08,230.53Z"/><g class="cls-6"><ellipse class="cls-7" cx="374.55" cy="21.56" rx="101.81" ry="101.96"/><ellipse class="cls-8" cx="127.09" cy="21.56" rx="101.81" ry="101.96"/><path class="cls-9" d="M238.92,56.52l6.76,59.89c.82,7.35,8,7.35,8.8,0l6.76-59.89Z"/><path class="cls-9" d="M220.83,54.87l2.28,22.47c.76,7.49,8.07,7.49,8.83,0l2.28-22.47Z"/><path class="cls-9" d="M279.33,54.87l-2.28,22.47c-.76,7.49-8.07,7.49-8.83,0l-2.28-22.47Z"/><ellipse class="cls-10" cx="320.15" cy="221.47" rx="19.95" ry="7.68"/><ellipse class="cls-10" cx="182.79" cy="221.47" rx="19.95" ry="7.68"/></g><path id="_Caminho_de_recorte_5" data-name="&lt;Caminho de recorte&gt;" class="cls-5" d="M250.08,230.53c50.6,0,87.44,15.66,112.76.13a67,67,0,0,0,25.83-84.59L366.34,96.44a72.7,72.7,0,0,0,1.87-46.89A17.85,17.85,0,0,0,345,37.74c-9.9,3.54-23.42,10.61-38.37,24.73,0,0-23.43-6.82-56.56-6.82s-56.56,6.82-56.56,6.82c-15-14.12-28.47-21.19-38.37-24.73A17.85,17.85,0,0,0,132,49.55a72.64,72.64,0,0,0,1.87,46.89l-22.34,49.63a67,67,0,0,0,25.84,84.59C162.64,246.19,199.48,230.53,250.08,230.53Z"/><path class="cls-11" d="M125.15,194.54s-45.44-7.18-82.44,20.16"/><path class="cls-11" d="M129.22,211.21s-40.47-.39-64.88,29.56"/><path class="cls-11" d="M138.54,222.63s-26.74,6.54-40.43,40"/><path class="cls-11" d="M375,194.54s45.44-7.18,82.44,20.16"/><path class="cls-11" d="M370.93,211.21s40.48-.39,64.89,29.56"/><path class="cls-11" d="M361.62,222.63s26.74,6.54,40.43,40"/><g id="_Grupo_" data-name="&lt;Grupo&gt;"><path class="cls-10" d="M142.83,76A61,61,0,0,1,145,53.29a4.42,4.42,0,0,1,4.28-3.2,4.71,4.71,0,0,1,1.56.28,84.66,84.66,0,0,1,19.26,10.11Z"/><path class="cls-12" d="M142.83,76A61,61,0,0,1,145,53.29a4.42,4.42,0,0,1,4.28-3.2,4.71,4.71,0,0,1,1.56.28,84.66,84.66,0,0,1,19.26,10.11Z"/><path class="cls-12" d="M357.33,76a61,61,0,0,0-2.2-22.72,4.42,4.42,0,0,0-4.28-3.2,4.71,4.71,0,0,0-1.56.28A84.46,84.46,0,0,0,330,60.48Z"/></g><circle class="cls-13" cx="179.86" cy="149.88" r="56.54"/><circle class="cls-2" cx="193.05" cy="131.97" r="28.27"/><path class="cls-2" d="M132.52,167.71a22.93,22.93,0,0,0,28.94,14.63c12-4,2.9-11.76-1.05-23.79s-1.23-23.72-13.26-19.77A22.92,22.92,0,0,0,132.52,167.71Z"/><circle class="cls-2" cx="183.63" cy="190.02" r="11.31"/><circle class="cls-2" cx="210.58" cy="175.96" r="11.31"/><circle class="cls-13" cx="320.3" cy="149.88" r="56.54"/><circle class="cls-2" cx="333.49" cy="131.97" r="28.27"/><path class="cls-2" d="M273,167.71a22.92,22.92,0,0,0,28.93,14.63c12-4,2.91-11.76-1-23.79s-1.24-23.72-13.26-19.77A22.92,22.92,0,0,0,273,167.71Z"/><circle class="cls-2" cx="324.07" cy="187.27" r="11.31"/><circle class="cls-2" cx="351.02" cy="175.96" r="11.31"/><path class="cls-9" d="M280.48,197.74a32.07,32.07,0,0,1-6.84,4.08,27.21,27.21,0,0,1-7.78,2.19,18.4,18.4,0,0,1-8.18-.79,17.86,17.86,0,0,1-6.94-4.55h1.46a17.74,17.74,0,0,1-6.94,4.55,18.58,18.58,0,0,1-8.19.8,27.8,27.8,0,0,1-7.77-2.19,31.7,31.7,0,0,1-6.84-4.09,42.49,42.49,0,0,0,7.19,3.17,29.74,29.74,0,0,0,7.56,1.55,17.79,17.79,0,0,0,7.41-1,16.14,16.14,0,0,0,6.12-4.14,1,1,0,0,1,1.42,0l0,0a16,16,0,0,0,6.12,4.14,18,18,0,0,0,7.41,1,30.19,30.19,0,0,0,7.56-1.56A42.49,42.49,0,0,0,280.48,197.74Z"/><polygon class="cls-14" points="246.16 191.41 251.47 197.74 256.78 191.41 246.16 191.41"/><circle class="cls-15" cx="422.08" cy="113.67" r="31.77"/><circle class="cls-11" cx="422.08" cy="113.67" r="31.77"/><circle class="cls-15" cx="409.89" cy="58.64" r="17.77"/><circle class="cls-11" cx="409.89" cy="58.64" r="17.77"/><path class="cls-15" d="M111.18,88.14c-10.13,5.66-15.1,23.24-9.44,33.36-5.66-10.12-23.23-15.1-33.36-9.43,10.13-5.67,15.1-23.24,9.44-33.37C83.48,88.83,101.05,93.8,111.18,88.14Z"/><path class="cls-11" d="M111.18,88.14c-10.13,5.66-15.1,23.24-9.44,33.36-5.66-10.12-23.23-15.1-33.36-9.43,10.13-5.67,15.1-23.24,9.44-33.37C83.48,88.83,101.05,93.8,111.18,88.14Z"/></svg>