<svg id="Camada_1" data-name="Camada 1" xmlns="http://www.w3.org/2000/svg" xmlns:xlink="http://www.w3.org/1999/xlink" viewBox="0 0 500 300"><defs><style>.cls-1,.cls-4{fill:#fffad6;}.cls-1,.cls-11,.cls-12,.cls-13,.cls-14,.cls-15,.cls-5{stroke:#555659;}.cls-1,.cls-5{stroke-miterlimit:10;}.cls-1,.cls-11,.cls-12,.cls-14,.cls-15,.cls-5{stroke-width:2px;}.cls-2{fill:#fff;}.cls-12,.cls-13,.cls-3,.cls-5{fill:none;}.cls-3{stroke:#c9cbca;}.cls-11,.cls-12,.cls-13,.cls-14,.cls-15,.cls-3{stroke-linecap:round;stroke-linejoin:round;}.cls-6{clip-path:url(#clip-path);}.cls-7{fill:#e2a14c;}.cls-8{fill:#cfc5b2;}.cls-11,.cls-9{fill:#555659;}.cls-10,.cls-14{fill:#feafba;}.cls-13{stroke-width:4px;}.cls-15{fill:#fef495;}</style><clipPath id="clip-path"><path id="_Caminho_de_recorte_" data-name="&lt;Caminho de recorte&gt;" class="cls-1" d="M260.18,240.47c50.6,0,87.44,15.66,112.76.13A67,67,0,0,0,398.77,156l-22.33-49.64a72.67,72.67,0,0,0,1.87-46.88,17.85,17.85,0,0,0-23.2-11.81c-9.9,3.54-23.42,10.61-38.37,24.73,0,0-23.43-6.82-56.56-6.82s-56.56,6.82-56.56,6.82c-15-14.12-28.47-21.19-38.37-24.73a17.85,17.85,0,0,0-23.2,11.81,72.61,72.61,0,0,0,1.87,46.88L121.58,156a67,67,0,0,0,25.84,84.59C172.74,256.13,209.57,240.47,260.18,240.47Z"/></clipPath></defs><title>cat01</title><path class="cls-2" d="M472.51,149.41a125.68,125.68,0,0,0-48.84-9.54c-3.29,0-6.6.11-9.92.35l-15.59-34.63a93.55,93.55,0,0,0-.38-51.42,38.23,38.23,0,0,0-49.6-25.31c-12.68,4.53-38.64,18.2-38.64,18.2H288.09a267.21,267.21,0,0,0-56,0H211s-26.33-13.67-39-18.2a38.2,38.2,0,0,0-45.83,16.62,25.74,25.74,0,0,0-13.79-4,26.08,26.08,0,0,0-5.7.64,26.34,26.34,0,0,0-6.75,2.58c-.54-.13-1.09-.26-1.65-.35A27.17,27.17,0,0,0,93.87,44a27.74,27.74,0,0,0-6.15.69,27.06,27.06,0,0,0-9.86,4.43c-.37.26-.71.56-1.06.84-.44,0-.88-.05-1.32-.05a27,27,0,0,0-5.92.66,26.54,26.54,0,0,0-15.45,10A26.72,26.72,0,0,0,15.66,90.17l9.21,40.5a26.49,26.49,0,0,0,21.7,20.41,20.34,20.34,0,0,0,8.25,37.27,20.43,20.43,0,0,0,1.33,22.55,20.33,20.33,0,0,0,27.75,4.53c-.11.17-.23.33-.35.49A20.35,20.35,0,0,0,100,248.24,20.41,20.41,0,0,0,116,240.53,86,86,0,0,0,136.7,258.3c11,6.73,23.59,9.87,39.7,9.87,11.22,0,23.11-1.51,35.72-3.11,6.73-.86,14.67-1.86,23.08-2.64,9,9.32,19,11,24.9,11s15.86-1.64,24.9-11c8.41.78,16.35,1.78,23.1,2.64,12.6,1.6,24.49,3.11,35.7,3.11,16.1,0,28.72-3.14,39.7-9.87a86.23,86.23,0,0,0,21.81-19l.43.58a20.34,20.34,0,0,0,36.57-8.77,20.17,20.17,0,0,0-3.63-15.14l-.36-.5a20.34,20.34,0,0,0,27.75-4.52,20.39,20.39,0,0,0,1.33-22.56,20.35,20.35,0,0,0,5.11-38.94Z"/><path class="cls-3" d="M472.51,149.41a125.68,125.68,0,0,0-48.84-9.54c-3.29,0-6.6.11-9.92.35l-15.59-34.63a93.55,93.55,0,0,0-.38-51.42,38.23,38.23,0,0,0-49.6-25.31c-12.68,4.53-38.64,18.2-38.64,18.2H288.09a267.21,267.21,0,0,0-56,0H211s-26.33-13.67-39-18.2a38.2,38.2,0,0,0-45.83,16.62,25.74,25.74,0,0,0-13.79-4,26.08,26.08,0,0,0-5.7.64,26.34,26.34,0,0,0-6.75,2.58c-.54-.13-1.09-.26-1.65-.35A27.17,27.17,0,0,0,93.87,44a27.74,27.74,0,0,0-6.15.69,27.06,27.06,0,0,0-9.86,4.43c-.37.26-.71.56-1.06.84-.44,0-.88-.05-1.32-.05a27,27,0,0,0-5.92.66,26.54,26.54,0,0,0-15.45,10A26.72,26.72,0,0,0,15.66,90.17l9.21,40.5a26.49,26.49,0,0,0,21.7,20.41,20.34,20.34,0,0,0,8.25,37.27,20.43,20.43,0,0,0,1.33,22.55,20.33,20.33,0,0,0,27.75,4.53c-.11.17-.23.33-.35.49A20.35,20.35,0,0,0,100,248.24,20.41,20.41,0,0,0,116,240.53,86,86,0,0,0,136.7,258.3c11,6.73,23.59,9.87,39.7,9.87,11.22,0,23.11-1.51,35.72-3.11,6.73-.86,14.67-1.86,23.08-2.64,9,9.32,19,11,24.9,11s15.86-1.64,24.9-11c8.41.78,16.35,1.78,23.1,2.64,12.6,1.6,24.49,3.11,35.7,3.11,16.1,0,28.72-3.14,39.7-9.87a86.23,86.23,0,0,0,21.81-19l.43.58a20.34,20.34,0,0,0,36.57-8.77,20.17,20.17,0,0,0-3.63-15.14l-.36-.5a20.34,20.34,0,0,0,27.75-4.52,20.39,20.39,0,0,0,1.33-22.56,20.35,20.35,0,0,0,5.11-38.94Z"/><path id="_Caminho_de_recorte_2" data-name="&lt;Caminho de recorte&gt;" class="cls-4" d="M260.18,240.47c50.6,0,87.44,15.66,112.76.13A67,67,0,0,0,398.77,156l-22.33-49.64a72.67,72.67,0,0,0,1.87-46.88,17.85,17.85,0,0,0-23.2-11.81c-9.9,3.54-23.42,10.61-38.37,24.73,0,0-23.43-6.82-56.56-6.82s-56.56,6.82-56.56,6.82c-15-14.12-28.47-21.19-38.37-24.73a17.85,17.85,0,0,0-23.2,11.81,72.61,72.61,0,0,0,1.87,46.88L121.58,156a67,67,0,0,0,25.84,84.59C172.74,256.13,209.57,240.47,260.18,240.47Z"/><path id="_Caminho_de_recorte_3" data-name="&lt;Caminho de recorte&gt;" class="cls-5" d="M260.18,240.47c50.6,0,87.44,15.66,112.76.13A67,67,0,0,0,398.77,156l-22.33-49.64a72.67,72.67,0,0,0,1.87-46.88,17.85,17.85,0,0,0-23.2-11.81c-9.9,3.54-23.42,10.61-38.37,24.73,0,0-23.43-6.82-56.56-6.82s-56.56,6.82-56.56,6.82c-15-14.12-28.47-21.19-38.37-24.73a17.85,17.85,0,0,0-23.2,11.81,72.61,72.61,0,0,0,1.87,46.88L121.58,156a67,67,0,0,0,25.84,84.59C172.74,256.13,209.57,240.47,260.18,240.47Z"/><path id="_Caminho_de_recorte_4" data-name="&lt;Caminho de recorte&gt;" class="cls-4" d="M260.18,240.47c50.6,0,87.44,15.66,112.76.13A67,67,0,0,0,398.77,156l-22.33-49.64a72.67,72.67,0,0,0,1.87-46.88,17.85,17.85,0,0,0-23.2-11.81c-9.9,3.54-23.42,10.61-38.37,24.73,0,0-23.43-6.82-56.56-6.82s-56.56,6.82-56.56,6.82c-15-14.12-28.47-21.19-38.37-24.73a17.85,17.85,0,0,0-23.2,11.81,72.61,72.61,0,0,0,1.87,46.88L121.58,156a67,67,0,0,0,25.84,84.59C172.74,256.13,209.57,240.47,260.18,240.47Z"/><g class="cls-6"><ellipse class="cls-7" cx="384.65" cy="31.5" rx="101.81" ry="101.96"/><ellipse class="cls-8" cx="137.19" cy="31.5" rx="101.81" ry="101.96"/><path class="cls-9" d="M249,66.46l6.76,59.89c.82,7.34,8,7.34,8.8,0l6.76-59.89Z"/><path class="cls-9" d="M230.93,64.81l2.28,22.47c.76,7.49,8.07,7.49,8.83,0l2.28-22.47Z"/><path class="cls-9" d="M289.43,64.81l-2.28,22.47c-.76,7.49-8.07,7.49-8.83,0L276,64.81Z"/></g><path id="_Caminho_de_recorte_5" data-name="&lt;Caminho de recorte&gt;" class="cls-5" d="M260.18,240.47c50.6,0,87.44,15.66,112.76.13A67,67,0,0,0,398.77,156l-22.33-49.64a72.67,72.67,0,0,0,1.87-46.88,17.85,17.85,0,0,0-23.2-11.81c-9.9,3.54-23.42,10.61-38.37,24.73,0,0-23.43-6.82-56.56-6.82s-56.56,6.82-56.56,6.82c-15-14.12-28.47-21.19-38.37-24.73a17.85,17.85,0,0,0-23.2,11.81,72.61,72.61,0,0,0,1.87,46.88L121.58,156a67,67,0,0,0,25.84,84.59C172.74,256.13,209.57,240.47,260.18,240.47Z"/><ellipse class="cls-10" cx="328.86" cy="190.61" rx="19.95" ry="7.68"/><ellipse class="cls-10" cx="191.5" cy="190.61" rx="19.95" ry="7.68"/><path class="cls-10" d="M260.18,253.94c-25.11,0-27.72-62.36-28-74.55A23.58,23.58,0,0,0,246,184.23a22.52,22.52,0,0,0,14.16-5.3,22.51,22.51,0,0,0,14.15,5.3,23.61,23.61,0,0,0,13.83-4.84C287.89,191.58,285.29,253.94,260.18,253.94Z"/><path class="cls-9" d="M260.18,180.22a23.49,23.49,0,0,0,14.15,5,23.79,23.79,0,0,0,12.78-3.93,237.36,237.36,0,0,1-3.51,34.48c-3.17,16.95-9.81,37.16-23.42,37.16s-20.24-20.18-23.41-37.12a238.3,238.3,0,0,1-3.53-34.52A23.84,23.84,0,0,0,246,185.23a23.56,23.56,0,0,0,14.16-5m29-2.88h0Zm0,0c-5.45,4.43-10.52,5.89-14.86,5.89a21.65,21.65,0,0,1-14.15-5.64A21.66,21.66,0,0,1,246,183.23c-4.33,0-9.41-1.46-14.86-5.89,0,0,0,77.6,29,77.6s29-77.6,29-77.6Z"/><polygon class="cls-11" points="254.87 171.01 260.18 177.34 265.49 171.01 254.87 171.01"/><path class="cls-12" d="M142.52,167.83s-42.43-17.77-84.86,0"/><path class="cls-12" d="M142.52,185S103.3,175,72.47,198.3"/><path class="cls-12" d="M148.86,198.3s-27.52,0-48.77,29.24"/><path class="cls-12" d="M379.86,167.83s42.43-17.77,84.87,0"/><path class="cls-12" d="M379.86,185s39.22-10,70.05,13.31"/><path class="cls-12" d="M373.52,198.3s27.53,0,48.77,29.24"/><path class="cls-13" d="M225,153.87s-33.48-40.23-67,0"/><path class="cls-13" d="M295.38,153.87s33.48-40.23,66.95,0"/><g id="_Grupo_" data-name="&lt;Grupo&gt;"><path class="cls-10" d="M152.93,86a61,61,0,0,1,2.2-22.72,4.42,4.42,0,0,1,4.28-3.2,4.76,4.76,0,0,1,1.56.28,84.43,84.43,0,0,1,19.25,10.11Z"/><path class="cls-14" d="M152.93,86a61,61,0,0,1,2.2-22.72,4.42,4.42,0,0,1,4.28-3.2,4.76,4.76,0,0,1,1.56.28,84.43,84.43,0,0,1,19.25,10.11Z"/><path class="cls-14" d="M367.42,86a61,61,0,0,0-2.19-22.72A4.43,4.43,0,0,0,361,60a4.67,4.67,0,0,0-1.56.28,84.46,84.46,0,0,0-19.26,10.11Z"/></g><path class="cls-15" d="M81.71,74.83l9.2,40.5a6.32,6.32,0,0,1-4.76,7.57h0a6.33,6.33,0,0,1-7.57-4.77L74.91,102l-21.46,4.88L57.12,123a6.31,6.31,0,0,1-4.76,7.56h0a6.33,6.33,0,0,1-7.57-4.76l-9.2-40.5a6.32,6.32,0,0,1,4.77-7.56h0a6.31,6.31,0,0,1,7.56,4.76l3.62,15.91L73,93.55,69.38,77.63a6.32,6.32,0,0,1,4.77-7.56h0A6.32,6.32,0,0,1,81.71,74.83Z"/><path class="cls-15" d="M100.68,69.22a6.08,6.08,0,0,1,0,2.65,6.91,6.91,0,0,1-1,2.4,7.57,7.57,0,0,1-1.87,1.92,7.16,7.16,0,0,1-2.55,1.13,6.61,6.61,0,0,1-2.69.06,7.29,7.29,0,0,1-2.45-.94,6.64,6.64,0,0,1-1.92-1.74,6.3,6.3,0,0,1-1.1-2.39,6.65,6.65,0,0,1-.05-2.7,6.78,6.78,0,0,1,1-2.43,7.08,7.08,0,0,1,1.8-1.9,6.86,6.86,0,0,1,2.46-1.09,7.26,7.26,0,0,1,2.78-.1,7.08,7.08,0,0,1,4.48,2.68A6.3,6.3,0,0,1,100.68,69.22Zm2.46,16.19,6,26.35a5.77,5.77,0,0,1-4.34,6.9h0a5.76,5.76,0,0,1-6.9-4.34L91.9,88a5.77,5.77,0,0,1,4.35-6.9h0A5.76,5.76,0,0,1,103.14,85.41Z"/><path class="cls-15" d="M117.73,65.7l3.52,15.48a52.08,52.08,0,0,1,1,5.42c.16,1.36.29,2.75.39,4.16A4.66,4.66,0,0,1,119,95.68h0a4.63,4.63,0,0,1-5.34-2.84c-.38-.94-.73-1.89-1.07-2.83a58.93,58.93,0,0,1-1.92-6.66l-3.47-15.26a5.4,5.4,0,0,1,4.07-6.46h0A5.39,5.39,0,0,1,117.73,65.7Zm-2.24,44.54a6.22,6.22,0,0,1,.84-4.8,6.56,6.56,0,0,1,1.71-1.78,6.7,6.7,0,0,1,2.43-1.07,6.58,6.58,0,0,1,2.61-.08,6.89,6.89,0,0,1,2.33.87,6.06,6.06,0,0,1,1.81,1.65,6.24,6.24,0,0,1,1,2.31,6.33,6.33,0,0,1,.06,2.56,6,6,0,0,1-.91,2.29,6.43,6.43,0,0,1-1.73,1.76,6.66,6.66,0,0,1-2.4,1,6.77,6.77,0,0,1-2.64.11,6.23,6.23,0,0,1-2.31-.85,6.31,6.31,0,0,1-1.79-1.67A6.38,6.38,0,0,1,115.49,110.24Z"/></svg>