<svg id="Camada_1" data-name="Camada 1" xmlns="http://www.w3.org/2000/svg" xmlns:xlink="http://www.w3.org/1999/xlink" viewBox="0 0 500 300"><defs><style>.cls-1,.cls-4{fill:#fffad6;}.cls-1,.cls-11,.cls-12,.cls-5{stroke:#555659;stroke-width:2px;}.cls-1,.cls-5{stroke-miterlimit:10;}.cls-2{fill:#fff;}.cls-11,.cls-3,.cls-5{fill:none;}.cls-3{stroke:#c9cbca;}.cls-11,.cls-12,.cls-3{stroke-linecap:round;stroke-linejoin:round;}.cls-6{clip-path:url(#clip-path);}.cls-7{fill:#e2a14c;}.cls-8{fill:#cfc5b2;}.cls-9{fill:#555659;}.cls-10,.cls-12{fill:#feafba;}</style><clipPath id="clip-path"><path id="_Caminho_de_recorte_" data-name="&lt;Caminho de recorte&gt;" class="cls-1" d="M250.08,230.53c50.6,0,87.44,15.66,112.76.13a67,67,0,0,0,25.83-84.59L366.34,96.44a72.7,72.7,0,0,0,1.87-46.89A17.85,17.85,0,0,0,345,37.74c-9.9,3.54-23.42,10.61-38.37,24.73,0,0-23.43-6.82-56.56-6.82s-56.56,6.82-56.56,6.82c-15-14.12-28.47-21.19-38.37-24.73A17.85,17.85,0,0,0,132,49.55a72.64,72.64,0,0,0,1.87,46.89l-22.34,49.63a67,67,0,0,0,25.84,84.59C162.64,246.19,199.48,230.53,250.08,230.53Z"/></clipPath></defs><title>cat05</title><path class="cls-2" d="M469.46,198.67c-18.21-13.46-37.81-19.91-54.64-22.83a87.66,87.66,0,0,0-7.67-37.77L388.06,95.65a93.45,93.45,0,0,0-.38-51.42,38.22,38.22,0,0,0-49.59-25.31c-12.68,4.53-38.85,18.21-38.85,18.21H278a265.32,265.32,0,0,0-56,0H200.76s-26.17-13.68-38.84-18.21a38.23,38.23,0,0,0-49.6,25.31,93.54,93.54,0,0,0-.39,51.42L92.84,138.07a87.68,87.68,0,0,0-7.66,37.77c-16.84,2.92-36.44,9.38-54.68,22.86a20.35,20.35,0,0,0,12.13,36.7c.72,0,1.43,0,2.13-.11a20.35,20.35,0,0,0,34.67,19.4l-.24.57A20.39,20.39,0,0,0,90.32,281.8a20.35,20.35,0,0,0,26.55-11.12,53.55,53.55,0,0,1,13.76-20c10,5.16,21.5,7.59,35.66,7.59,11.22,0,23.12-1.51,35.72-3.11,14.34-1.82,30.58-3.89,48-3.89s33.65,2.07,48,3.89c12.59,1.6,24.49,3.11,35.71,3.11,14.16,0,25.62-2.42,35.65-7.59a53.54,53.54,0,0,1,13.78,20.07,20.35,20.35,0,0,0,37.66-15.45c-.07-.19-.15-.38-.23-.56a20.36,20.36,0,0,0,34.67-19.41c.7.07,1.41.11,2.13.11a20.36,20.36,0,0,0,12.09-36.73Z"/><path class="cls-3" d="M469.46,198.67c-18.21-13.46-37.81-19.91-54.64-22.83a87.66,87.66,0,0,0-7.67-37.77L388.06,95.65a93.45,93.45,0,0,0-.38-51.42,38.22,38.22,0,0,0-49.59-25.31c-12.68,4.53-38.85,18.21-38.85,18.21H278a265.32,265.32,0,0,0-56,0H200.76s-26.17-13.68-38.84-18.21a38.23,38.23,0,0,0-49.6,25.31,93.54,93.54,0,0,0-.39,51.42L92.84,138.07a87.68,87.68,0,0,0-7.66,37.77c-16.84,2.92-36.44,9.38-54.68,22.86a20.35,20.35,0,0,0,12.13,36.7c.72,0,1.43,0,2.13-.11a20.35,20.35,0,0,0,34.67,19.4l-.24.57A20.39,20.39,0,0,0,90.32,281.8a20.35,20.35,0,0,0,26.55-11.12,53.55,53.55,0,0,1,13.76-20c10,5.16,21.5,7.59,35.66,7.59,11.22,0,23.12-1.51,35.72-3.11,14.34-1.82,30.58-3.89,48-3.89s33.65,2.07,48,3.89c12.59,1.6,24.49,3.11,35.71,3.11,14.16,0,25.62-2.42,35.65-7.59a53.54,53.54,0,0,1,13.78,20.07,20.35,20.35,0,0,0,37.66-15.45c-.07-.19-.15-.38-.23-.56a20.36,20.36,0,0,0,34.67-19.41c.7.07,1.41.11,2.13.11a20.36,20.36,0,0,0,12.09-36.73Z"/><path id="_Caminho_de_recorte_2" data-name="&lt;Caminho de recorte&gt;" class="cls-4" d="M250.08,230.53c50.6,0,87.44,15.66,112.76.13a67,67,0,0,0,25.83-84.59L366.34,96.44a72.7,72.7,0,0,0,1.87-46.89A17.85,17.85,0,0,0,345,37.74c-9.9,3.54-23.42,10.61-38.37,24.73,0,0-23.43-6.82-56.56-6.82s-56.56,6.82-56.56,6.82c-15-14.12-28.47-21.19-38.37-24.73A17.85,17.85,0,0,0,132,49.55a72.64,72.64,0,0,0,1.87,46.89l-22.34,49.63a67,67,0,0,0,25.84,84.59C162.64,246.19,199.48,230.53,250.08,230.53Z"/><path id="_Caminho_de_recorte_3" data-name="&lt;Caminho de recorte&gt;" class="cls-5" d="M250.08,230.53c50.6,0,87.44,15.66,112.76.13a67,67,0,0,0,25.83-84.59L366.34,96.44a72.7,72.7,0,0,0,1.87-46.89A17.85,17.85,0,0,0,345,37.74c-9.9,3.54-23.42,10.61-38.37,24.73,0,0-23.43-6.82-56.56-6.82s-56.56,6.82-56.56,6.82c-15-14.12-28.47-21.19-38.37-24.73A17.85,17.85,0,0,0,132,49.55a72.64,72.64,0,0,0,1.87,46.89l-22.34,49.63a67,67,0,0,0,25.84,84.59C162.64,246.19,199.48,230.53,250.08,230.53Z"/><path id="_Caminho_de_recorte_4" data-name="&lt;Caminho de recorte&gt;" class="cls-4" d="M250.08,230.53c50.6,0,87.44,15.66,112.76.13a67,67,0,0,0,25.83-84.59L366.34,96.44a72.7,72.7,0,0,0,1.87-46.89A17.85,17.85,0,0,0,345,37.74c-9.9,3.54-23.42,10.61-38.37,24.73,0,0-23.43-6.82-56.56-6.82s-56.56,6.82-56.56,6.82c-15-14.12-28.47-21.19-38.37-24.73A17.85,17.85,0,0,0,132,49.55a72.64,72.64,0,0,0,1.87,46.89l-22.34,49.63a67,67,0,0,0,25.84,84.59C162.64,246.19,199.48,230.53,250.08,230.53Z"/><g class="cls-6"><ellipse class="cls-7" cx="374.55" cy="21.56" rx="101.81" ry="101.96"/><ellipse class="cls-8" cx="127.09" cy="21.56" rx="101.81" ry="101.96"/><path class="cls-9" d="M238.92,56.52l6.76,59.89c.82,7.35,8,7.35,8.8,0l6.76-59.89Z"/><path class="cls-9" d="M220.83,54.87l2.28,22.47c.76,7.49,8.07,7.49,8.83,0l2.28-22.47Z"/><path class="cls-9" d="M279.33,54.87l-2.28,22.47c-.76,7.49-8.07,7.49-8.83,0l-2.28-22.47Z"/></g><path id="_Caminho_de_recorte_5" data-name="&lt;Caminho de recorte&gt;" class="cls-5" d="M250.08,230.53c50.6,0,87.44,15.66,112.76.13a67,67,0,0,0,25.83-84.59L366.34,96.44a72.7,72.7,0,0,0,1.87-46.89A17.85,17.85,0,0,0,345,37.74c-9.9,3.54-23.42,10.61-38.37,24.73,0,0-23.43-6.82-56.56-6.82s-56.56,6.82-56.56,6.82c-15-14.12-28.47-21.19-38.37-24.73A17.85,17.85,0,0,0,132,49.55a72.64,72.64,0,0,0,1.87,46.89l-22.34,49.63a67,67,0,0,0,25.84,84.59C162.64,246.19,199.48,230.53,250.08,230.53Z"/><ellipse class="cls-10" cx="318.76" cy="194.25" rx="19.95" ry="7.68"/><ellipse class="cls-10" cx="181.4" cy="194.25" rx="19.95" ry="7.68"/><path class="cls-11" d="M125.15,194.54s-45.44-7.18-82.44,20.16"/><path class="cls-11" d="M129.22,211.21s-40.47-.39-64.88,29.56"/><path class="cls-11" d="M138.54,222.63s-26.74,6.54-40.43,40"/><path class="cls-11" d="M375,194.54s45.44-7.18,82.44,20.16"/><path class="cls-11" d="M370.93,211.21s40.48-.39,64.89,29.56"/><path class="cls-11" d="M361.62,222.63s26.74,6.54,40.43,40"/><g id="_Grupo_" data-name="&lt;Grupo&gt;"><path class="cls-10" d="M142.83,76A61,61,0,0,1,145,53.29a4.42,4.42,0,0,1,4.28-3.2,4.71,4.71,0,0,1,1.56.28,84.66,84.66,0,0,1,19.26,10.11Z"/><path class="cls-12" d="M142.83,76A61,61,0,0,1,145,53.29a4.42,4.42,0,0,1,4.28-3.2,4.71,4.71,0,0,1,1.56.28,84.66,84.66,0,0,1,19.26,10.11Z"/><path class="cls-12" d="M357.33,76a61,61,0,0,0-2.2-22.72,4.42,4.42,0,0,0-4.28-3.2,4.71,4.71,0,0,0-1.56.28A84.46,84.46,0,0,0,330,60.48Z"/></g><path class="cls-12" d="M255.88,211.21c0,5.09-2.38,9.22-5.31,9.22s-5.31-4.13-5.31-9.22,2.38-9.22,5.31-9.22S255.88,206.11,255.88,211.21Z"/><path class="cls-2" d="M318.76,168.65a11,11,0,1,1,11-11A11.06,11.06,0,0,1,318.76,168.65Z"/><path class="cls-9" d="M318.76,148.56a9,9,0,1,1-9.05,9.05,9,9,0,0,1,9.05-9.05m0-4a13,13,0,1,0,13,13.05,13.06,13.06,0,0,0-13-13.05Z"/><path class="cls-2" d="M181.4,168.65a11,11,0,1,1,11-11A11,11,0,0,1,181.4,168.65Z"/><path class="cls-9" d="M181.4,148.56a9,9,0,1,1-9,9.05,9,9,0,0,1,9-9.05m0-4a13,13,0,1,0,13,13.05,13.06,13.06,0,0,0-13-13.05Z"/></svg>