<svg id="Camada_1" data-name="Camada 1" xmlns="http://www.w3.org/2000/svg" xmlns:xlink="http://www.w3.org/1999/xlink" viewBox="0 0 500 300"><defs><style>.cls-1,.cls-4{fill:#fffad6;}.cls-1,.cls-11,.cls-12,.cls-13,.cls-5{stroke:#555659;}.cls-1,.cls-5{stroke-miterlimit:10;}.cls-1,.cls-11,.cls-13,.cls-5{stroke-width:2px;}.cls-2{fill:#fff;}.cls-11,.cls-12,.cls-3,.cls-5{fill:none;}.cls-3{stroke:#c9cbca;}.cls-11,.cls-12,.cls-13,.cls-3{stroke-linecap:round;stroke-linejoin:round;}.cls-6{clip-path:url(#clip-path);}.cls-7{fill:#e2a14c;}.cls-8{fill:#cfc5b2;}.cls-9{fill:#555659;}.cls-10,.cls-13{fill:#feafba;}.cls-12{stroke-width:4px;}</style><clipPath id="clip-path"><path id="_Caminho_de_recorte_" data-name="&lt;Caminho de recorte&gt;" class="cls-1" d="M250.08,231.59c50.6,0,87.44,15.65,112.76.13a67,67,0,0,0,25.83-84.6L366.34,97.49a72.7,72.7,0,0,0,1.87-46.89A17.85,17.85,0,0,0,345,38.79c-9.9,3.54-23.42,10.61-38.37,24.73,0,0-23.43-6.82-56.56-6.82s-56.56,6.82-56.56,6.82c-15-14.12-28.47-21.19-38.37-24.73A17.85,17.85,0,0,0,132,50.6a72.7,72.7,0,0,0,1.87,46.89l-22.33,49.63a67,67,0,0,0,25.83,84.6C162.64,247.24,199.48,231.59,250.08,231.59Z"/></clipPath></defs><title>cat09</title><path class="cls-2" d="M414.85,177.11a86.72,86.72,0,0,0-7.7-38L388.07,96.7a93.54,93.54,0,0,0-.39-51.42A38.23,38.23,0,0,0,338.08,20c-12.68,4.54-39,18.21-39,18.21H278a265.6,265.6,0,0,0-56,0H200.58S174.6,24.51,161.92,20a38.23,38.23,0,0,0-49.6,25.3,93.58,93.58,0,0,0-.39,51.43L92.84,139.12a87,87,0,0,0-7.69,38c-17.89,6.54-38.68,18-55.55,38.17A20.35,20.35,0,0,0,52,247.53a20.35,20.35,0,0,0,38.25,10.72l-.09.58a20.35,20.35,0,0,0,17,23.2,20,20,0,0,0,3.09.24A20.23,20.23,0,0,0,130.43,265a59,59,0,0,1,3.06-11.91c9.34,4.22,20,6.21,32.81,6.21,11.22,0,23.11-1.51,35.72-3.11,14.33-1.82,30.58-3.88,48-3.88l3.59,0a26.13,26.13,0,0,0,31.84,2.31c4.53.52,8.82,1.07,12.58,1.54,12.59,1.6,24.48,3.11,35.69,3.11,12.85,0,23.48-2,32.82-6.21a59.43,59.43,0,0,1,3.05,11.9,20.23,20.23,0,0,0,20.12,17.3,20.6,20.6,0,0,0,3.06-.23,20.35,20.35,0,0,0,17.06-23.19l-.09-.61A20.35,20.35,0,0,0,448,247.53a20.35,20.35,0,0,0,22.44-32.24C453.54,195.14,432.74,183.65,414.85,177.11Z"/><path class="cls-3" d="M414.85,177.11a86.72,86.72,0,0,0-7.7-38L388.07,96.7a93.54,93.54,0,0,0-.39-51.42A38.23,38.23,0,0,0,338.08,20c-12.68,4.54-39,18.21-39,18.21H278a265.6,265.6,0,0,0-56,0H200.58S174.6,24.51,161.92,20a38.23,38.23,0,0,0-49.6,25.3,93.58,93.58,0,0,0-.39,51.43L92.84,139.12a87,87,0,0,0-7.69,38c-17.89,6.54-38.68,18-55.55,38.17A20.35,20.35,0,0,0,52,247.53a20.35,20.35,0,0,0,38.25,10.72l-.09.58a20.35,20.35,0,0,0,17,23.2,20,20,0,0,0,3.09.24A20.23,20.23,0,0,0,130.43,265a59,59,0,0,1,3.06-11.91c9.34,4.22,20,6.21,32.81,6.21,11.22,0,23.11-1.51,35.72-3.11,14.33-1.82,30.58-3.88,48-3.88l3.59,0a26.13,26.13,0,0,0,31.84,2.31c4.53.52,8.82,1.07,12.58,1.54,12.59,1.6,24.48,3.11,35.69,3.11,12.85,0,23.48-2,32.82-6.21a59.43,59.43,0,0,1,3.05,11.9,20.23,20.23,0,0,0,20.12,17.3,20.6,20.6,0,0,0,3.06-.23,20.35,20.35,0,0,0,17.06-23.19l-.09-.61A20.35,20.35,0,0,0,448,247.53a20.35,20.35,0,0,0,22.44-32.24C453.54,195.14,432.74,183.65,414.85,177.11Z"/><path id="_Caminho_de_recorte_2" data-name="&lt;Caminho de recorte&gt;" class="cls-4" d="M250.08,231.59c50.6,0,87.44,15.65,112.76.13a67,67,0,0,0,25.83-84.6L366.34,97.49a72.7,72.7,0,0,0,1.87-46.89A17.85,17.85,0,0,0,345,38.79c-9.9,3.54-23.42,10.61-38.37,24.73,0,0-23.43-6.82-56.56-6.82s-56.56,6.82-56.56,6.82c-15-14.12-28.47-21.19-38.37-24.73A17.85,17.85,0,0,0,132,50.6a72.7,72.7,0,0,0,1.87,46.89l-22.33,49.63a67,67,0,0,0,25.83,84.6C162.64,247.24,199.48,231.59,250.08,231.59Z"/><path id="_Caminho_de_recorte_3" data-name="&lt;Caminho de recorte&gt;" class="cls-5" d="M250.08,231.59c50.6,0,87.44,15.65,112.76.13a67,67,0,0,0,25.83-84.6L366.34,97.49a72.7,72.7,0,0,0,1.87-46.89A17.85,17.85,0,0,0,345,38.79c-9.9,3.54-23.42,10.61-38.37,24.73,0,0-23.43-6.82-56.56-6.82s-56.56,6.82-56.56,6.82c-15-14.12-28.47-21.19-38.37-24.73A17.85,17.85,0,0,0,132,50.6a72.7,72.7,0,0,0,1.87,46.89l-22.33,49.63a67,67,0,0,0,25.83,84.6C162.64,247.24,199.48,231.59,250.08,231.59Z"/><path id="_Caminho_de_recorte_4" data-name="&lt;Caminho de recorte&gt;" class="cls-4" d="M250.08,231.59c50.6,0,87.44,15.65,112.76.13a67,67,0,0,0,25.83-84.6L366.34,97.49a72.7,72.7,0,0,0,1.87-46.89A17.85,17.85,0,0,0,345,38.79c-9.9,3.54-23.42,10.61-38.37,24.73,0,0-23.43-6.82-56.56-6.82s-56.56,6.82-56.56,6.82c-15-14.12-28.47-21.19-38.37-24.73A17.85,17.85,0,0,0,132,50.6a72.7,72.7,0,0,0,1.87,46.89l-22.33,49.63a67,67,0,0,0,25.83,84.6C162.64,247.24,199.48,231.59,250.08,231.59Z"/><g class="cls-6"><ellipse class="cls-7" cx="374.55" cy="22.61" rx="101.81" ry="101.96"/><ellipse class="cls-8" cx="127.1" cy="22.61" rx="101.81" ry="101.96"/><path class="cls-9" d="M238.92,57.57l6.76,59.89c.83,7.35,8,7.35,8.8,0l6.76-59.89Z"/><path class="cls-9" d="M220.83,55.92l2.28,22.47c.76,7.49,8.07,7.49,8.83,0l2.28-22.47Z"/><path class="cls-9" d="M279.33,55.92l-2.28,22.47c-.76,7.49-8.07,7.49-8.83,0l-2.28-22.47Z"/></g><path id="_Caminho_de_recorte_5" data-name="&lt;Caminho de recorte&gt;" class="cls-5" d="M250.08,231.59c50.6,0,87.44,15.65,112.76.13a67,67,0,0,0,25.83-84.6L366.34,97.49a72.7,72.7,0,0,0,1.87-46.89A17.85,17.85,0,0,0,345,38.79c-9.9,3.54-23.42,10.61-38.37,24.73,0,0-23.43-6.82-56.56-6.82s-56.56,6.82-56.56,6.82c-15-14.12-28.47-21.19-38.37-24.73A17.85,17.85,0,0,0,132,50.6a72.7,72.7,0,0,0,1.87,46.89l-22.33,49.63a67,67,0,0,0,25.83,84.6C162.64,247.24,199.48,231.59,250.08,231.59Z"/><path class="cls-10" d="M162.47,169.92c1.34,4,10.9,4.48,21.35,1s17.85-9.55,16.52-13.58-10.9-4.48-21.36-1S161.13,165.89,162.47,169.92Z"/><path class="cls-10" d="M337.69,169.92c-1.34,4-10.9,4.48-21.35,1s-17.85-9.55-16.52-13.58,10.9-4.48,21.36-1S339,165.89,337.69,169.92Z"/><path class="cls-11" d="M120.67,189s-45.85,3.7-75.39,39"/><path class="cls-11" d="M128.55,204.28s-39.43,9.14-56.12,44"/><path class="cls-11" d="M140.29,213.2s-24.45,12.64-29.9,48.37"/><path class="cls-11" d="M379.49,189s45.86,3.7,75.39,39"/><path class="cls-11" d="M371.61,204.28s39.43,9.14,56.12,44"/><path class="cls-11" d="M359.87,213.2s24.45,12.64,29.9,48.37"/><line class="cls-12" x1="214.88" y1="122.37" x2="147.93" y2="144.98"/><path class="cls-11" d="M196.13,115.27s18.05-5.31,18.75-26.83"/><path class="cls-11" d="M304,115.27S286,110,285.28,88.44"/><line class="cls-12" x1="285.28" y1="122.37" x2="352.23" y2="144.98"/><g id="_Grupo_" data-name="&lt;Grupo&gt;"><path class="cls-10" d="M142.83,77.06A61,61,0,0,1,145,54.34a4.41,4.41,0,0,1,4.28-3.19,4.7,4.7,0,0,1,1.56.27,84.17,84.17,0,0,1,19.26,10.12Z"/><path class="cls-13" d="M142.83,77.06A61,61,0,0,1,145,54.34a4.41,4.41,0,0,1,4.28-3.19,4.7,4.7,0,0,1,1.56.27,84.17,84.17,0,0,1,19.26,10.12Z"/><path class="cls-13" d="M357.33,77.06a61,61,0,0,0-2.2-22.72,4.41,4.41,0,0,0-4.28-3.19,4.7,4.7,0,0,0-1.56.27A84.37,84.37,0,0,0,330,61.54Z"/></g><path class="cls-13" d="M281.53,211.55c-17.95-27.61-48-29.6-62,0-8.43,17.85,30.56,1.6,30.56,1.6l17.65,5.15s-1.11,15.91-1.11,16.72c0,1.8,2,3.25,4.52,3.25s4.52-1.45,4.52-3.25c0-.67-.78-15.56-.78-15.56S286.05,218.51,281.53,211.55Z"/></svg>