<svg id="Camada_1" data-name="Camada 1" xmlns="http://www.w3.org/2000/svg" xmlns:xlink="http://www.w3.org/1999/xlink" viewBox="0 0 500 300"><defs><style>.cls-1,.cls-4{fill:#fffad6;}.cls-1,.cls-11,.cls-13,.cls-14,.cls-5{stroke:#555659;stroke-width:2px;}.cls-1,.cls-5{stroke-miterlimit:10;}.cls-2{fill:#fff;}.cls-11,.cls-3,.cls-5{fill:none;}.cls-3{stroke:#c9cbca;}.cls-11,.cls-13,.cls-14,.cls-3{stroke-linecap:round;stroke-linejoin:round;}.cls-6{clip-path:url(#clip-path);}.cls-7{fill:#e2a14c;}.cls-8{fill:#9fd0e4;}.cls-9{fill:#cfc5b2;}.cls-10,.cls-14{fill:#555659;}.cls-12,.cls-13{fill:#feafba;}</style><clipPath id="clip-path"><path id="_Caminho_de_recorte_" data-name="&lt;Caminho de recorte&gt;" class="cls-1" d="M249.06,242.8c50.61,0,87.45,15.65,112.76.13a67,67,0,0,0,25.84-84.59L365.32,108.7a72.71,72.71,0,0,0,1.88-46.89A17.86,17.86,0,0,0,344,50c-9.91,3.54-23.42,10.61-38.38,24.73,0,0-23.43-6.82-56.56-6.82s-56.55,6.82-56.55,6.82C177.55,60.62,164,53.55,154.13,50a17.86,17.86,0,0,0-23.2,11.8,72.65,72.65,0,0,0,1.88,46.89l-22.34,49.64a67,67,0,0,0,25.83,84.59C161.62,258.45,198.46,242.8,249.06,242.8Z"/></clipPath></defs><title>cat04</title><path class="cls-2" d="M43.71,213.29a20.48,20.48,0,0,0-2.59,7.49A20.17,20.17,0,0,0,45,235.83a20.37,20.37,0,0,0,27.77,4.55l-.36.49a20.35,20.35,0,1,0,32.93,23.93,57.47,57.47,0,0,1,10.47-11.12,87.39,87.39,0,0,0,9.75,6.95c11,6.73,23.59,9.87,39.7,9.87,10.18,0,20.91-1.24,32.22-2.67a27.17,27.17,0,0,0,25.87,19,26.83,26.83,0,0,0,11.39-2.53c8.29-3.85,12.71-4.27,14.22-4.27,1.32,0,6.42.36,16.65,5a27.07,27.07,0,0,0,31.61-6.92c.52-.6,1-1.23,1.46-1.86a32.21,32.21,0,0,0,16.4,7.3,28.47,28.47,0,0,0,4.54.36,41.66,41.66,0,0,0,12.81-2.36l.92-.28,1.62.54a39.21,39.21,0,0,0,12.78,2.57,25.48,25.48,0,0,0,8.53-1.45,20.38,20.38,0,0,0,13.43-20.81c.89-.49,1.79-1,2.65-1.49a85.15,85.15,0,0,0,10.74-7.78,57.12,57.12,0,0,1,11.5,11.93,20.34,20.34,0,0,0,28.44,4.52,20.36,20.36,0,0,0,4.51-28.43c-.13-.16-.25-.33-.37-.5a20.36,20.36,0,0,0,27.75-4.5,20.42,20.42,0,0,0,1.33-22.58,20.35,20.35,0,0,0,5.11-38.94,125.74,125.74,0,0,0-48.86-9.54h-1.34a88.25,88.25,0,0,0-5.05-14.49l-19.09-42.41A91.63,91.63,0,0,0,390.11,75l.12-.14a20.21,20.21,0,0,0,3.64-15.12,30.89,30.89,0,0,1,.07-3.61c.29-5.22.72-13.11-4.18-20.8C382.87,24.49,371.85,22,366.52,20.73c-.51-.12-1-.22-1.46-.34a7.28,7.28,0,0,1-1.3-.93,28.59,28.59,0,0,0-18.58-6.9,35.91,35.91,0,0,0-6.62.65A20.35,20.35,0,0,0,322.3,37c0,.24.11.48.16.72-7.64,4.06-42.94,11.7-42.94,11.7s-.1-.18-.16-.27a20.2,20.2,0,0,0-12.87-8.77,46.16,46.16,0,0,1-5.05-1.77c-5.54-2.14-12.45-4.81-20.89-4.81h-1c-8.11.21-14.69,2.85-20,5a46.5,46.5,0,0,1-4.65,1.72,19.47,19.47,0,0,1-2.57.22,8.2,8.2,0,0,1-2.2-.35,41.13,41.13,0,0,0-9.48-1.19,45.49,45.49,0,0,0-11.09,1.49,20.43,20.43,0,0,0-5.31,2.16A114.83,114.83,0,0,0,160.9,31.19a38.22,38.22,0,0,0-49.59,25.3A94.24,94.24,0,0,0,109,99.79a20.35,20.35,0,0,0-16.46,10.82,34.78,34.78,0,0,0-11.5,15.2c-2.61,6.26-2.62,12.18-2.63,16.52,0,.67,0,1.49,0,2.11a45.38,45.38,0,0,1-2.91,4.14c-3,4-7.13,9.38-7.18,17.29,0,.11,0,.21,0,.31a121.63,121.63,0,0,0-29.77,8.18,20.35,20.35,0,0,0,5.14,38.93Z"/><path class="cls-3" d="M43.71,213.29a20.48,20.48,0,0,0-2.59,7.49A20.17,20.17,0,0,0,45,235.83a20.37,20.37,0,0,0,27.77,4.55l-.36.49a20.35,20.35,0,1,0,32.93,23.93,57.47,57.47,0,0,1,10.47-11.12,87.39,87.39,0,0,0,9.75,6.95c11,6.73,23.59,9.87,39.7,9.87,10.18,0,20.91-1.24,32.22-2.67a27.17,27.17,0,0,0,25.87,19,26.83,26.83,0,0,0,11.39-2.53c8.29-3.85,12.71-4.27,14.22-4.27,1.32,0,6.42.36,16.65,5a27.07,27.07,0,0,0,31.61-6.92c.52-.6,1-1.23,1.46-1.86a32.21,32.21,0,0,0,16.4,7.3,28.47,28.47,0,0,0,4.54.36,41.66,41.66,0,0,0,12.81-2.36l.92-.28,1.62.54a39.21,39.21,0,0,0,12.78,2.57,25.48,25.48,0,0,0,8.53-1.45,20.38,20.38,0,0,0,13.43-20.81c.89-.49,1.79-1,2.65-1.49a85.15,85.15,0,0,0,10.74-7.78,57.12,57.12,0,0,1,11.5,11.93,20.34,20.34,0,0,0,28.44,4.52,20.36,20.36,0,0,0,4.51-28.43c-.13-.16-.25-.33-.37-.5a20.36,20.36,0,0,0,27.75-4.5,20.42,20.42,0,0,0,1.33-22.58,20.35,20.35,0,0,0,5.11-38.94,125.74,125.74,0,0,0-48.86-9.54h-1.34a88.25,88.25,0,0,0-5.05-14.49l-19.09-42.41A91.63,91.63,0,0,0,390.11,75l.12-.14a20.21,20.21,0,0,0,3.64-15.12,30.89,30.89,0,0,1,.07-3.61c.29-5.22.72-13.11-4.18-20.8C382.87,24.49,371.85,22,366.52,20.73c-.51-.12-1-.22-1.46-.34a7.28,7.28,0,0,1-1.3-.93,28.59,28.59,0,0,0-18.58-6.9,35.91,35.91,0,0,0-6.62.65A20.35,20.35,0,0,0,322.3,37c0,.24.11.48.16.72-7.64,4.06-42.94,11.7-42.94,11.7s-.1-.18-.16-.27a20.2,20.2,0,0,0-12.87-8.77,46.16,46.16,0,0,1-5.05-1.77c-5.54-2.14-12.45-4.81-20.89-4.81h-1c-8.11.21-14.69,2.85-20,5a46.5,46.5,0,0,1-4.65,1.72,19.47,19.47,0,0,1-2.57.22,8.2,8.2,0,0,1-2.2-.35,41.13,41.13,0,0,0-9.48-1.19,45.49,45.49,0,0,0-11.09,1.49,20.43,20.43,0,0,0-5.31,2.16A114.83,114.83,0,0,0,160.9,31.19a38.22,38.22,0,0,0-49.59,25.3A94.24,94.24,0,0,0,109,99.79a20.35,20.35,0,0,0-16.46,10.82,34.78,34.78,0,0,0-11.5,15.2c-2.61,6.26-2.62,12.18-2.63,16.52,0,.67,0,1.49,0,2.11a45.38,45.38,0,0,1-2.91,4.14c-3,4-7.13,9.38-7.18,17.29,0,.11,0,.21,0,.31a121.63,121.63,0,0,0-29.77,8.18,20.35,20.35,0,0,0,5.14,38.93Z"/><path id="_Caminho_de_recorte_2" data-name="&lt;Caminho de recorte&gt;" class="cls-4" d="M249.06,242.8c50.61,0,87.45,15.65,112.76.13a67,67,0,0,0,25.84-84.59L365.32,108.7a72.71,72.71,0,0,0,1.88-46.89A17.86,17.86,0,0,0,344,50c-9.91,3.54-23.42,10.61-38.38,24.73,0,0-23.43-6.82-56.56-6.82s-56.55,6.82-56.55,6.82C177.55,60.62,164,53.55,154.13,50a17.86,17.86,0,0,0-23.2,11.8,72.65,72.65,0,0,0,1.88,46.89l-22.34,49.64a67,67,0,0,0,25.83,84.59C161.62,258.45,198.46,242.8,249.06,242.8Z"/><path id="_Caminho_de_recorte_3" data-name="&lt;Caminho de recorte&gt;" class="cls-5" d="M249.06,242.8c50.61,0,87.45,15.65,112.76.13a67,67,0,0,0,25.84-84.59L365.32,108.7a72.71,72.71,0,0,0,1.88-46.89A17.86,17.86,0,0,0,344,50c-9.91,3.54-23.42,10.61-38.38,24.73,0,0-23.43-6.82-56.56-6.82s-56.55,6.82-56.55,6.82C177.55,60.62,164,53.55,154.13,50a17.86,17.86,0,0,0-23.2,11.8,72.65,72.65,0,0,0,1.88,46.89l-22.34,49.64a67,67,0,0,0,25.83,84.59C161.62,258.45,198.46,242.8,249.06,242.8Z"/><path id="_Caminho_de_recorte_4" data-name="&lt;Caminho de recorte&gt;" class="cls-4" d="M249.06,242.8c50.61,0,87.45,15.65,112.76.13a67,67,0,0,0,25.84-84.59L365.32,108.7a72.71,72.71,0,0,0,1.88-46.89A17.86,17.86,0,0,0,344,50c-9.91,3.54-23.42,10.61-38.38,24.73,0,0-23.43-6.82-56.56-6.82s-56.55,6.82-56.55,6.82C177.55,60.62,164,53.55,154.13,50a17.86,17.86,0,0,0-23.2,11.8,72.65,72.65,0,0,0,1.88,46.89l-22.34,49.64a67,67,0,0,0,25.83,84.59C161.62,258.45,198.46,242.8,249.06,242.8Z"/><g class="cls-6"><ellipse class="cls-7" cx="373.54" cy="33.83" rx="101.81" ry="101.96"/><path class="cls-8" d="M147.33,172.63c-5.9,10.4-1.87,11.46-1.87,23.42s2,12,2,23.92-2,12-2,23.92,2,12,2,23.92-7.77,14-1.87,24.41c3.35,5.9,7.66-1.49,14.44-1.49s6.78,2,13.57,2,6.78-2,13.56-2,6.79,2,13.57,2,9.36,4.41,12.71-1.5c5.9-10.4,1.87-11.46,1.87-23.42s-2-12-2-23.92,2-11.95,2-23.91-2-12-2-23.92,7.77-14,1.87-24.42c-3.35-5.9-7.65,1.49-14.44,1.49s-6.78-2-13.56-2-6.79,2-13.57,2-6.74-.41-13.34-2C153.4,169.54,150.68,166.73,147.33,172.63Z"/><path class="cls-8" d="M285.9,172.63C280,183,284,184.09,284,196.05s2,12,2,23.92-2,12-2,23.92,2,12,2,23.92-7.77,14-1.87,24.41c3.35,5.9,7.65-1.49,14.44-1.49s6.78,2,13.57,2,6.78-2,13.56-2,6.79,2,13.57,2,9.36,4.41,12.71-1.5c5.9-10.4,1.87-11.46,1.87-23.42s-2-12-2-23.92,2-11.95,2-23.91-2-12-2-23.92,7.77-14,1.87-24.42c-3.35-5.9-7.65,1.49-14.44,1.49s-6.78-2-13.57-2-6.78,2-13.56,2-6.74-.41-13.34-2C292,169.54,289.25,166.73,285.9,172.63Z"/><ellipse class="cls-9" cx="126.08" cy="33.83" rx="101.81" ry="101.96"/><path class="cls-10" d="M237.9,68.78l6.76,59.9c.83,7.34,8,7.34,8.81,0l6.75-59.9Z"/><path class="cls-10" d="M219.81,67.14l2.29,22.47c.76,7.48,8.06,7.48,8.82,0l2.28-22.47Z"/><path class="cls-10" d="M278.31,67.14,276,89.61c-.76,7.48-8.07,7.48-8.83,0l-2.28-22.47Z"/></g><path id="_Caminho_de_recorte_5" data-name="&lt;Caminho de recorte&gt;" class="cls-5" d="M249.06,242.8c50.61,0,87.45,15.65,112.76.13a67,67,0,0,0,25.84-84.59L365.32,108.7a72.71,72.71,0,0,0,1.88-46.89A17.86,17.86,0,0,0,344,50c-9.91,3.54-23.42,10.61-38.38,24.73,0,0-23.43-6.82-56.56-6.82s-56.55,6.82-56.55,6.82C177.55,60.62,164,53.55,154.13,50a17.86,17.86,0,0,0-23.2,11.8,72.65,72.65,0,0,0,1.88,46.89l-22.34,49.64a67,67,0,0,0,25.83,84.59C161.62,258.45,198.46,242.8,249.06,242.8Z"/><path class="cls-11" d="M131.41,192.78S89,175,46.54,192.78"/><path class="cls-11" d="M131.41,209.93s-39.22-10-70,13.31"/><path class="cls-11" d="M137.75,223.24s-27.53,0-48.77,29.25"/><path class="cls-11" d="M368.75,192.78s42.43-17.77,84.86,0"/><path class="cls-11" d="M368.75,209.93s39.22-10,70,13.31"/><path class="cls-11" d="M362.41,223.24s27.52,0,48.77,29.25"/><g id="_Grupo_" data-name="&lt;Grupo&gt;"><path class="cls-12" d="M141.82,88.28A61.2,61.2,0,0,1,144,65.56a4.47,4.47,0,0,1,5.84-2.92,84.05,84.05,0,0,1,19.26,10.11Z"/><path class="cls-13" d="M141.82,88.28A61.2,61.2,0,0,1,144,65.56a4.47,4.47,0,0,1,5.84-2.92,84.05,84.05,0,0,1,19.26,10.11Z"/><path class="cls-13" d="M356.31,88.28a61,61,0,0,0-2.2-22.72,4.42,4.42,0,0,0-4.28-3.2,4.51,4.51,0,0,0-1.56.28A84,84,0,0,0,329,72.75Z"/></g><ellipse class="cls-2" cx="180.39" cy="174.4" rx="43.23" ry="28.15"/><path class="cls-10" d="M180.39,148.24c11.3,0,21.87,2.9,29.76,8.16,7.39,4.93,11.47,11.32,11.47,18s-4.08,13.06-11.47,18c-7.89,5.26-18.46,8.16-29.76,8.16s-21.87-2.9-29.77-8.16c-7.39-4.93-11.46-11.32-11.46-18s4.07-13.07,11.46-18c7.9-5.26,18.47-8.16,29.77-8.16m0-4c-25,0-45.23,13.5-45.23,30.16s20.25,30.15,45.23,30.15,45.23-13.5,45.23-30.15-20.25-30.16-45.23-30.16Z"/><path class="cls-2" d="M317.74,202.55c-23.84,0-43.23-12.63-43.23-28.15s19.39-28.16,43.23-28.16S361,158.87,361,174.4,341.58,202.55,317.74,202.55Z"/><path class="cls-10" d="M317.74,148.24c11.3,0,21.87,2.9,29.76,8.16,7.4,4.93,11.47,11.32,11.47,18s-4.07,13.06-11.47,18c-7.89,5.26-18.46,8.16-29.76,8.16s-21.87-2.9-29.76-8.16c-7.4-4.93-11.47-11.32-11.47-18s4.07-13.07,11.47-18c7.89-5.26,18.46-8.16,29.76-8.16m0-4c-25,0-45.23,13.5-45.23,30.16s20.25,30.15,45.23,30.15S363,191.05,363,174.4s-20.25-30.16-45.23-30.16Z"/><path class="cls-11" d="M195.12,138.13s18-5.31,18.74-26.83"/><path class="cls-11" d="M303,138.13S285,132.82,284.27,111.3"/><path class="cls-12" d="M276.86,268a8.17,8.17,0,0,1-3.33-.73c-9.78-4.4-18-6.64-24.47-6.64-6.14,0-13.63,2-22.26,6.05a7.9,7.9,0,0,1-3.35.75,8,8,0,0,1-6-2.79,7.93,7.93,0,0,1-1.89-6.38l6.07-44.52a3.56,3.56,0,0,1,3.32-3c15.95-1,23.22-8,25.36-10.49a46.75,46.75,0,0,0,25.16,10.44,3.53,3.53,0,0,1,3.23,3l6.17,45.16a7.92,7.92,0,0,1-1.88,6.36,8.09,8.09,0,0,1-6.08,2.79Z"/><path class="cls-10" d="M250.36,201.6a47.85,47.85,0,0,0,25,10.06,2.53,2.53,0,0,1,2.33,2.16L283.83,259a7,7,0,0,1-1.64,5.56,7.11,7.11,0,0,1-5.33,2.45,7.19,7.19,0,0,1-2.92-.64c-9.91-4.47-18.28-6.73-24.88-6.73-6.29,0-13.92,2.07-22.68,6.14a6.91,6.91,0,0,1-2.93.66,7,7,0,0,1-5.29-2.45,6.94,6.94,0,0,1-1.66-5.58l6.08-44.52a2.54,2.54,0,0,1,2.38-2.17c14.93-.92,22.51-7,25.4-10.11m-.24-2.84s-6.41,9.79-25.28,11a4.55,4.55,0,0,0-4.25,3.9l-6.07,44.52a9.07,9.07,0,0,0,8.93,10.3,8.78,8.78,0,0,0,3.77-.85c6.76-3.14,14.78-5.95,21.84-5.95,7.51,0,16.56,3.17,24.06,6.55a9,9,0,0,0,12.69-9.46l-6.16-45.17a4.55,4.55,0,0,0-4.14-3.89,45.56,45.56,0,0,1-25.39-10.9Z"/><polygon class="cls-14" points="244.81 195.35 250.12 201.68 255.43 195.35 244.81 195.35"/><path class="cls-11" d="M109.53,119.17c-3.39,7.65-4.87,6.06-8.43,14.59-2.06,5-2.43,11.21-4.35,16.29C94,157.23,90,163.16,90,165.68"/><path class="cls-11" d="M194.87,61.26c11.06-2.77,9.89-.42,22.78-2.24,6.9-1,14.62-3.78,22.52-4s15.53,2.19,22.5,3.65"/><path class="cls-11" d="M342.61,34.11c7.92-1.49,7.54.46,15.64,3.74,4.31,1.75,9.94,3.38,13.35,8.74,2.41,3.79,2.48,9.41,3.49,15.8"/><path class="cls-11" d="M304.19,257c7.34,1.82,6.11,3.57,14.43,4.92,4.71.76,10.21-.55,15.24-.29,5.78.3,11.49,2,15.26.64"/></svg>