<svg id="Camada_1" data-name="Camada 1" xmlns="http://www.w3.org/2000/svg" xmlns:xlink="http://www.w3.org/1999/xlink" viewBox="0 0 500 300"><defs><style>.cls-1,.cls-4{fill:#fffad6;}.cls-1,.cls-10,.cls-12,.cls-14,.cls-15,.cls-5{stroke:#555659;}.cls-1,.cls-5{stroke-miterlimit:10;}.cls-1,.cls-10,.cls-11,.cls-14,.cls-15,.cls-5{stroke-width:2px;}.cls-2{fill:#fff;}.cls-10,.cls-11,.cls-12,.cls-3,.cls-5{fill:none;}.cls-3{stroke:#c9cbca;}.cls-10,.cls-11,.cls-12,.cls-14,.cls-15,.cls-3{stroke-linecap:round;stroke-linejoin:round;}.cls-6{clip-path:url(#clip-path);}.cls-7{fill:#e2a14c;}.cls-8{fill:#cfc5b2;}.cls-9{fill:#555659;}.cls-11{stroke:#feafba;}.cls-12{stroke-width:4px;}.cls-13,.cls-14{fill:#feafba;}.cls-15{fill:#ed135c;}</style><clipPath id="clip-path"><path id="_Caminho_de_recorte_" data-name="&lt;Caminho de recorte&gt;" class="cls-1" d="M249.06,237.26c50.61,0,87.45,15.65,112.76.13a67,67,0,0,0,25.84-84.59l-22.34-49.64a72.65,72.65,0,0,0,1.88-46.89A17.87,17.87,0,0,0,344,44.46C334.09,48,320.58,55.07,305.62,69.2c0,0-23.43-6.82-56.56-6.82s-56.55,6.82-56.55,6.82C177.55,55.07,164,48,154.13,44.46a17.87,17.87,0,0,0-23.2,11.81,72.65,72.65,0,0,0,1.88,46.89L110.47,152.8a67,67,0,0,0,25.83,84.59C161.62,252.91,198.46,237.26,249.06,237.26Z"/></clipPath></defs><title>cat02</title><path class="cls-2" d="M472.31,195.43a20.37,20.37,0,0,0-10.92-26.62,125.74,125.74,0,0,0-48.86-9.54h-1.34c-.63-2.5-1.38-5-2.23-7.41l11.28-1.78A38.37,38.37,0,0,0,456,112.61c.23-15.32-7.45-27.43-20.28-33.16a31.78,31.78,0,0,0-11.33-12,31.42,31.42,0,0,0,8-27.22c-2.17-11.67-9.67-20.13-20-23.28A27.09,27.09,0,0,0,393.13,9a30.07,30.07,0,0,0-6.36.7A31.21,31.21,0,0,0,366.34,24.8c-.35.62-.65,1.26-1,1.9A37.85,37.85,0,0,0,350,23.4a38.34,38.34,0,0,0-12.91,2.25c-12.67,4.53-25.12,11.81-37.1,21.68a264.42,264.42,0,0,0-101.95,0c-12-9.88-24.43-17.16-37.11-21.69A38.22,38.22,0,0,0,111.31,51a95,95,0,0,0-3.21,16,37.41,37.41,0,0,0-16.78-4.23h-.43c-12.6,0-22.87,6.19-28.63,16.72C49.43,85.18,41.75,97.29,42,112.61a38.37,38.37,0,0,0,35.75,37.48L89,151.87q-1.29,3.66-2.23,7.41a125.59,125.59,0,0,0-48.19,9.53,20.36,20.36,0,0,0,5.12,38.94,20.42,20.42,0,0,0-2.59,7.49,20.18,20.18,0,0,0,3.9,15,20.37,20.37,0,0,0,27.77,4.55l-.36.48a20.35,20.35,0,1,0,32.93,23.93,57.69,57.69,0,0,1,10.47-11.11,87.39,87.39,0,0,0,9.75,7c9.39,5.76,20,8.89,33,9.67a38.69,38.69,0,0,0,4,8.45A37.87,37.87,0,0,0,194.7,291h22.65A38,38,0,0,0,249,274.15,38,38,0,0,0,280.61,291h22.65a37.86,37.86,0,0,0,32.2-17.78,38.4,38.4,0,0,0,4-8.44c13-.78,23.56-3.91,33-9.67a85.77,85.77,0,0,0,10.73-7.78,56.88,56.88,0,0,1,11.5,11.93,20.35,20.35,0,0,0,36.58-8.76,20.19,20.19,0,0,0-3.64-15.15c-.11-.17-.24-.33-.36-.5A20.35,20.35,0,0,0,455,230.32a20.4,20.4,0,0,0,1.33-22.57A20.34,20.34,0,0,0,472.31,195.43Z"/><path class="cls-3" d="M472.31,195.43a20.37,20.37,0,0,0-10.92-26.62,125.74,125.74,0,0,0-48.86-9.54h-1.34c-.63-2.5-1.38-5-2.23-7.41l11.28-1.78A38.37,38.37,0,0,0,456,112.61c.23-15.32-7.45-27.43-20.28-33.16a31.78,31.78,0,0,0-11.33-12,31.42,31.42,0,0,0,8-27.22c-2.17-11.67-9.67-20.13-20-23.28A27.09,27.09,0,0,0,393.13,9a30.07,30.07,0,0,0-6.36.7A31.21,31.21,0,0,0,366.34,24.8c-.35.62-.65,1.26-1,1.9A37.85,37.85,0,0,0,350,23.4a38.34,38.34,0,0,0-12.91,2.25c-12.67,4.53-25.12,11.81-37.1,21.68a264.42,264.42,0,0,0-101.95,0c-12-9.88-24.43-17.16-37.11-21.69A38.22,38.22,0,0,0,111.31,51a95,95,0,0,0-3.21,16,37.41,37.41,0,0,0-16.78-4.23h-.43c-12.6,0-22.87,6.19-28.63,16.72C49.43,85.18,41.75,97.29,42,112.61a38.37,38.37,0,0,0,35.75,37.48L89,151.87q-1.29,3.66-2.23,7.41a125.59,125.59,0,0,0-48.19,9.53,20.36,20.36,0,0,0,5.12,38.94,20.42,20.42,0,0,0-2.59,7.49,20.18,20.18,0,0,0,3.9,15,20.37,20.37,0,0,0,27.77,4.55l-.36.48a20.35,20.35,0,1,0,32.93,23.93,57.69,57.69,0,0,1,10.47-11.11,87.39,87.39,0,0,0,9.75,7c9.39,5.76,20,8.89,33,9.67a38.69,38.69,0,0,0,4,8.45A37.87,37.87,0,0,0,194.7,291h22.65A38,38,0,0,0,249,274.15,38,38,0,0,0,280.61,291h22.65a37.86,37.86,0,0,0,32.2-17.78,38.4,38.4,0,0,0,4-8.44c13-.78,23.56-3.91,33-9.67a85.77,85.77,0,0,0,10.73-7.78,56.88,56.88,0,0,1,11.5,11.93,20.35,20.35,0,0,0,36.58-8.76,20.19,20.19,0,0,0-3.64-15.15c-.11-.17-.24-.33-.36-.5A20.35,20.35,0,0,0,455,230.32a20.4,20.4,0,0,0,1.33-22.57A20.34,20.34,0,0,0,472.31,195.43Z"/><path id="_Caminho_de_recorte_2" data-name="&lt;Caminho de recorte&gt;" class="cls-4" d="M249.06,237.26c50.61,0,87.45,15.65,112.76.13a67,67,0,0,0,25.84-84.59l-22.34-49.64a72.65,72.65,0,0,0,1.88-46.89A17.87,17.87,0,0,0,344,44.46C334.09,48,320.58,55.07,305.62,69.2c0,0-23.43-6.82-56.56-6.82s-56.55,6.82-56.55,6.82C177.55,55.07,164,48,154.13,44.46a17.87,17.87,0,0,0-23.2,11.81,72.65,72.65,0,0,0,1.88,46.89L110.47,152.8a67,67,0,0,0,25.83,84.59C161.62,252.91,198.46,237.26,249.06,237.26Z"/><path id="_Caminho_de_recorte_3" data-name="&lt;Caminho de recorte&gt;" class="cls-5" d="M249.06,237.26c50.61,0,87.45,15.65,112.76.13a67,67,0,0,0,25.84-84.59l-22.34-49.64a72.65,72.65,0,0,0,1.88-46.89A17.87,17.87,0,0,0,344,44.46C334.09,48,320.58,55.07,305.62,69.2c0,0-23.43-6.82-56.56-6.82s-56.55,6.82-56.55,6.82C177.55,55.07,164,48,154.13,44.46a17.87,17.87,0,0,0-23.2,11.81,72.65,72.65,0,0,0,1.88,46.89L110.47,152.8a67,67,0,0,0,25.83,84.59C161.62,252.91,198.46,237.26,249.06,237.26Z"/><path id="_Caminho_de_recorte_4" data-name="&lt;Caminho de recorte&gt;" class="cls-4" d="M249.06,237.26c50.61,0,87.45,15.65,112.76.13a67,67,0,0,0,25.84-84.59l-22.34-49.64a72.65,72.65,0,0,0,1.88-46.89A17.87,17.87,0,0,0,344,44.46C334.09,48,320.58,55.07,305.62,69.2c0,0-23.43-6.82-56.56-6.82s-56.55,6.82-56.55,6.82C177.55,55.07,164,48,154.13,44.46a17.87,17.87,0,0,0-23.2,11.81,72.65,72.65,0,0,0,1.88,46.89L110.47,152.8a67,67,0,0,0,25.83,84.59C161.62,252.91,198.46,237.26,249.06,237.26Z"/><g class="cls-6"><ellipse class="cls-7" cx="373.54" cy="50.9" rx="101.81" ry="101.96"/><ellipse class="cls-8" cx="126.08" cy="50.9" rx="101.81" ry="101.96"/><path class="cls-9" d="M237.9,50.27l6.76,95.48c.83,7.35,8,7.35,8.81,0l6.75-95.48Z"/><path class="cls-9" d="M219.81,48.62l2.29,58.06c.76,7.49,8.06,7.49,8.82,0l2.28-58.06Z"/><path class="cls-9" d="M278.31,48.62,276,106.68c-.76,7.49-8.07,7.49-8.83,0l-2.28-58.06Z"/></g><path id="_Caminho_de_recorte_5" data-name="&lt;Caminho de recorte&gt;" class="cls-5" d="M249.06,237.26c50.61,0,87.45,15.65,112.76.13a67,67,0,0,0,25.84-84.59l-22.34-49.64a72.65,72.65,0,0,0,1.88-46.89A17.87,17.87,0,0,0,344,44.46C334.09,48,320.58,55.07,305.62,69.2c0,0-23.43-6.82-56.56-6.82s-56.55,6.82-56.55,6.82C177.55,55.07,164,48,154.13,44.46a17.87,17.87,0,0,0-23.2,11.81,72.65,72.65,0,0,0,1.88,46.89L110.47,152.8a67,67,0,0,0,25.83,84.59C161.62,252.91,198.46,237.26,249.06,237.26Z"/><path class="cls-10" d="M131.41,187.23s-42.43-17.77-84.87,0"/><path class="cls-10" d="M131.41,204.39s-39.22-10-70,13.31"/><path class="cls-10" d="M137.75,217.7s-27.53,0-48.77,29.24"/><path class="cls-10" d="M368.75,187.23s42.43-17.77,84.86,0"/><path class="cls-10" d="M368.75,204.39s39.22-10,70,13.31"/><path class="cls-10" d="M362.41,217.7s27.52,0,48.77,29.24"/><path class="cls-11" d="M362,194.78q.52-6.45,1-12.91c.35-4.3,0-8.66.31-13s1.58-8.53,1.93-12.83.22-8.64.57-12.94.77-8.6,1.12-12.9"/><path class="cls-11" d="M336.48,201.66c.35-4.27,0-8.6.4-12.88s1.43-8.49,1.78-12.77.52-8.56.87-12.84.08-8.61.43-12.89.74-8.55,1.09-12.83"/><path class="cls-11" d="M283.85,210.07c.36-4.23,1.62-8.38,2-12.6s-.11-8.53.25-12.76,1.33-8.4,1.69-12.63.91-8.44,1.28-12.66.61-8.47,1-12.7"/><path class="cls-11" d="M310.69,206.79c.36-4.25.84-8.5,1.2-12.75s-.06-8.57.29-12.82.73-8.5,1.09-12.75.56-8.52.92-12.77.93-8.49,1.29-12.75"/><path class="cls-11" d="M232,211.51c.37-4.17.17-8.4.53-12.58s1.63-8.28,2-12.45.52-8.38.88-12.56.31-8.39.68-12.57.51-8.38.87-12.56"/><path class="cls-11" d="M257.7,211.66c.36-4.21,1.36-8.35,1.72-12.56s.56-8.41.93-12.62.16-8.45.53-12.65,1.42-8.35,1.78-12.56.29-8.44.66-12.65"/><path class="cls-11" d="M205.41,209.53c.36-4.15,1.11-8.27,1.47-12.43s.24-8.34.6-12.5,1.15-8.27,1.51-12.42,1.16-8.28,1.52-12.43,0-8.38.37-12.53"/><path class="cls-11" d="M179.63,205.83c.35-4.13,1.26-8.21,1.62-12.34s.42-8.28.78-12.41.57-8.27.93-12.4.37-8.29.73-12.42.86-8.25,1.22-12.39"/><path class="cls-11" d="M154,200.36c.36-4.1,1.11-8.17,1.47-12.28s.19-8.25.55-12.36.39-8.23.74-12.34,1.09-8.18,1.45-12.29.86-8.2,1.21-12.3"/><path class="cls-11" d="M128,193.06c.35-4.08.89-8.14,1.24-12.22s.57-8.17.92-12.25,1-8.14,1.33-12.22.91-8.15,1.26-12.23.18-8.21.53-12.29"/><polyline class="cls-12" points="155.75 192.28 211.72 199.25 166.65 162.18"/><polyline class="cls-12" points="342.38 192.28 286.41 199.25 331.48 162.18"/><g id="_Grupo_" data-name="&lt;Grupo&gt;"><path class="cls-13" d="M141.82,82.74A61.28,61.28,0,0,1,144,60a4.43,4.43,0,0,1,4.29-3.19,4.64,4.64,0,0,1,1.55.27,84.57,84.57,0,0,1,19.26,10.12Z"/><path class="cls-14" d="M141.82,82.74A61.28,61.28,0,0,1,144,60a4.43,4.43,0,0,1,4.29-3.19,4.64,4.64,0,0,1,1.55.27,84.57,84.57,0,0,1,19.26,10.12Z"/><path class="cls-14" d="M356.31,82.74A61,61,0,0,0,354.11,60a4.42,4.42,0,0,0-4.28-3.19,4.74,4.74,0,0,0-1.56.27A84.54,84.54,0,0,0,329,67.21Z"/></g><path class="cls-13" d="M249.06,245.25c-15.13,0-17.22-27.64-17.5-34.92a18.37,18.37,0,0,0,8.45,2.12,17.5,17.5,0,0,0,9.05-2.53,17.58,17.58,0,0,0,9.06,2.53,18.4,18.4,0,0,0,8.45-2.12C266.29,217.61,264.2,245.25,249.06,245.25Z"/><path class="cls-9" d="M249.06,211.07a18.57,18.57,0,0,0,9.06,2.38,19,19,0,0,0,7.38-1.52c-.51,8.87-3.1,32.32-16.44,32.32s-15.92-23.45-16.43-32.32a19,19,0,0,0,7.38,1.52,18.49,18.49,0,0,0,9.05-2.38m18.56-2.48Zm0,0a17.9,17.9,0,0,1-9.5,2.86,16.15,16.15,0,0,1-9.06-2.74,16.1,16.1,0,0,1-9.05,2.74,17.88,17.88,0,0,1-9.5-2.86s0,37.66,18.55,37.66,18.56-37.66,18.56-37.66Z"/><path class="cls-1" d="M217.43,270.28a17.48,17.48,0,0,0,16-10.15,59.39,59.39,0,0,0,4.79-20.28c1.94-27.32-46.76-29.8-56.28-1.39L178.84,245a17.69,17.69,0,0,0,15.94,25.33Z"/><path class="cls-1" d="M280.69,270.28a17.48,17.48,0,0,1-16-10.15,59.39,59.39,0,0,1-4.79-20.28c-1.95-27.32,46.76-29.8,56.27-1.39l3.11,6.49a17.68,17.68,0,0,1-15.94,25.33Z"/><ellipse class="cls-13" cx="167.28" cy="218.23" rx="7.68" ry="14.83" transform="translate(-87.04 322.78) rotate(-74.88)"/><path class="cls-13" d="M345.16,214.36c1.11,4.1-4.4,9.15-12.31,11.29s-15.21.55-16.32-3.55,4.4-9.15,12.31-11.29S344.05,210.27,345.16,214.36Z"/><path class="cls-15" d="M78,95.93c-12.47,1-15.65,8.46-15.54,16A18.08,18.08,0,0,0,80,129.48l19.69,3.11a7.14,7.14,0,0,0,8.24-6.9l.48-22.5c1.3-10.5-6.57-20.3-17.16-20.45C85.14,82.65,79.54,85.63,78,95.93Z"/><path class="cls-15" d="M420.18,95.93c12.47,1,15.65,8.46,15.54,16a18.08,18.08,0,0,1-17.57,17.53l-19.69,3.11a7.14,7.14,0,0,1-8.25-6.9l-.47-22.5c-1.3-10.5,6.57-20.3,17.15-20.45C413,82.65,418.58,85.63,420.18,95.93Z"/><path class="cls-15" d="M401,35.7c7.77-.91,10.65,3.25,11.51,7.89a11.31,11.31,0,0,1-8.59,12.94l-11.69,4.34a4.46,4.46,0,0,1-5.91-3.21L383.2,43.93c-2.1-6.28,1.51-13.26,8-14.67C394.9,28.45,398.71,29.58,401,35.7Z"/></svg>