<svg id="Camada_1" data-name="Camada 1" xmlns="http://www.w3.org/2000/svg" xmlns:xlink="http://www.w3.org/1999/xlink" viewBox="0 0 500 300"><defs><style>.cls-1,.cls-14,.cls-4{fill:#fffad6;}.cls-1,.cls-11,.cls-12,.cls-13,.cls-14,.cls-5{stroke:#555659;}.cls-1,.cls-5{stroke-miterlimit:10;}.cls-1,.cls-11,.cls-12,.cls-14,.cls-5{stroke-width:2px;}.cls-2{fill:#fff;}.cls-12,.cls-3,.cls-5{fill:none;}.cls-3{stroke:#c9cbca;}.cls-11,.cls-12,.cls-13,.cls-14,.cls-3{stroke-linecap:round;stroke-linejoin:round;}.cls-6{clip-path:url(#clip-path);}.cls-7{fill:#e2a14c;}.cls-8{fill:#cfc5b2;}.cls-13,.cls-9{fill:#555659;}.cls-10,.cls-11{fill:#feafba;}.cls-13{stroke-width:4px;}</style><clipPath id="clip-path"><path id="_Caminho_de_recorte_" data-name="&lt;Caminho de recorte&gt;" class="cls-1" d="M250.08,230.53c50.6,0,87.44,15.66,112.76.13a67,67,0,0,0,25.83-84.59L366.34,96.43a72.67,72.67,0,0,0,1.87-46.88A17.85,17.85,0,0,0,345,37.74c-9.9,3.54-23.42,10.61-38.37,24.73,0,0-23.43-6.82-56.56-6.82s-56.56,6.82-56.56,6.82c-15-14.12-28.47-21.19-38.37-24.73A17.85,17.85,0,0,0,132,49.55a72.67,72.67,0,0,0,1.87,46.88l-22.33,49.64a67,67,0,0,0,25.83,84.59C162.64,246.19,199.48,230.53,250.08,230.53Z"/></clipPath></defs><title>cat11</title><path class="cls-2" d="M42.63,235.4c.72,0,1.43,0,2.13-.11a20.35,20.35,0,0,0,34.67,19.4l-.24.58a20.35,20.35,0,0,0,37.68,15.41,53.44,53.44,0,0,1,13.77-20c10,5.16,21.49,7.59,35.66,7.59,11.22,0,23.11-1.51,35.72-3.11,5.47-.7,11-1.41,16.82-2a22.08,22.08,0,0,0,15,5.71c6.08,0,11-2.26,15.34-4.26.28-.13.61-.29,1-.44l.88.41c4.06,1.91,9.12,4.29,15.22,4.29a22,22,0,0,0,15-5.7c5.76.62,11.33,1.33,16.8,2,12.59,1.6,24.48,3.11,35.69,3.11,14.17,0,25.64-2.43,35.66-7.59a53.46,53.46,0,0,1,13.78,20.06,20.36,20.36,0,0,0,37.67-15.44l-.23-.56a20.35,20.35,0,0,0,34.66-19.41c.7.07,1.41.11,2.13.11a20.36,20.36,0,0,0,12.09-36.73c-18.21-13.46-37.81-19.91-54.64-22.83a87.51,87.51,0,0,0-7.67-37.77L388.07,95.65a93.54,93.54,0,0,0-.39-51.42,38.23,38.23,0,0,0-49.6-25.31c-12.68,4.53-38.82,18.2-38.82,18.2H278a267.31,267.31,0,0,0-56,0H200.74s-26.14-13.67-38.83-18.2a38.22,38.22,0,0,0-49.59,25.31,93.54,93.54,0,0,0-.39,51.42L92.85,138.07a87.51,87.51,0,0,0-7.67,37.77c-16.83,2.92-36.43,9.37-54.66,22.84A20.36,20.36,0,0,0,42.63,235.4Z"/><path class="cls-3" d="M42.63,235.4c.72,0,1.43,0,2.13-.11a20.35,20.35,0,0,0,34.67,19.4l-.24.58a20.35,20.35,0,0,0,37.68,15.41,53.44,53.44,0,0,1,13.77-20c10,5.16,21.49,7.59,35.66,7.59,11.22,0,23.11-1.51,35.72-3.11,5.47-.7,11-1.41,16.82-2a22.08,22.08,0,0,0,15,5.71c6.08,0,11-2.26,15.34-4.26.28-.13.61-.29,1-.44l.88.41c4.06,1.91,9.12,4.29,15.22,4.29a22,22,0,0,0,15-5.7c5.76.62,11.33,1.33,16.8,2,12.59,1.6,24.48,3.11,35.69,3.11,14.17,0,25.64-2.43,35.66-7.59a53.46,53.46,0,0,1,13.78,20.06,20.36,20.36,0,0,0,37.67-15.44l-.23-.56a20.35,20.35,0,0,0,34.66-19.41c.7.07,1.41.11,2.13.11a20.36,20.36,0,0,0,12.09-36.73c-18.21-13.46-37.81-19.91-54.64-22.83a87.51,87.51,0,0,0-7.67-37.77L388.07,95.65a93.54,93.54,0,0,0-.39-51.42,38.23,38.23,0,0,0-49.6-25.31c-12.68,4.53-38.82,18.2-38.82,18.2H278a267.31,267.31,0,0,0-56,0H200.74s-26.14-13.67-38.83-18.2a38.22,38.22,0,0,0-49.59,25.31,93.54,93.54,0,0,0-.39,51.42L92.85,138.07a87.51,87.51,0,0,0-7.67,37.77c-16.83,2.92-36.43,9.37-54.66,22.84A20.36,20.36,0,0,0,42.63,235.4Z"/><path id="_Caminho_de_recorte_2" data-name="&lt;Caminho de recorte&gt;" class="cls-4" d="M250.08,230.53c50.6,0,87.44,15.66,112.76.13a67,67,0,0,0,25.83-84.59L366.34,96.43a72.67,72.67,0,0,0,1.87-46.88A17.85,17.85,0,0,0,345,37.74c-9.9,3.54-23.42,10.61-38.37,24.73,0,0-23.43-6.82-56.56-6.82s-56.56,6.82-56.56,6.82c-15-14.12-28.47-21.19-38.37-24.73A17.85,17.85,0,0,0,132,49.55a72.67,72.67,0,0,0,1.87,46.88l-22.33,49.64a67,67,0,0,0,25.83,84.59C162.64,246.19,199.48,230.53,250.08,230.53Z"/><path id="_Caminho_de_recorte_3" data-name="&lt;Caminho de recorte&gt;" class="cls-5" d="M250.08,230.53c50.6,0,87.44,15.66,112.76.13a67,67,0,0,0,25.83-84.59L366.34,96.43a72.67,72.67,0,0,0,1.87-46.88A17.85,17.85,0,0,0,345,37.74c-9.9,3.54-23.42,10.61-38.37,24.73,0,0-23.43-6.82-56.56-6.82s-56.56,6.82-56.56,6.82c-15-14.12-28.47-21.19-38.37-24.73A17.85,17.85,0,0,0,132,49.55a72.67,72.67,0,0,0,1.87,46.88l-22.33,49.64a67,67,0,0,0,25.83,84.59C162.64,246.19,199.48,230.53,250.08,230.53Z"/><path id="_Caminho_de_recorte_4" data-name="&lt;Caminho de recorte&gt;" class="cls-4" d="M250.08,230.53c50.6,0,87.44,15.66,112.76.13a67,67,0,0,0,25.83-84.59L366.34,96.43a72.67,72.67,0,0,0,1.87-46.88A17.85,17.85,0,0,0,345,37.74c-9.9,3.54-23.42,10.61-38.37,24.73,0,0-23.43-6.82-56.56-6.82s-56.56,6.82-56.56,6.82c-15-14.12-28.47-21.19-38.37-24.73A17.85,17.85,0,0,0,132,49.55a72.67,72.67,0,0,0,1.87,46.88l-22.33,49.64a67,67,0,0,0,25.83,84.59C162.64,246.19,199.48,230.53,250.08,230.53Z"/><g class="cls-6"><ellipse class="cls-7" cx="374.55" cy="21.56" rx="101.81" ry="101.96"/><ellipse class="cls-8" cx="127.1" cy="21.56" rx="101.81" ry="101.96"/><path class="cls-9" d="M238.92,56.52l6.76,59.89c.83,7.34,8,7.34,8.8,0l6.76-59.89Z"/><path class="cls-9" d="M220.83,54.87l2.28,22.47c.76,7.49,8.07,7.49,8.83,0l2.28-22.47Z"/><path class="cls-9" d="M279.33,54.87l-2.28,22.47c-.76,7.49-8.07,7.49-8.83,0l-2.28-22.47Z"/></g><path id="_Caminho_de_recorte_5" data-name="&lt;Caminho de recorte&gt;" class="cls-5" d="M250.08,230.53c50.6,0,87.44,15.66,112.76.13a67,67,0,0,0,25.83-84.59L366.34,96.43a72.67,72.67,0,0,0,1.87-46.88A17.85,17.85,0,0,0,345,37.74c-9.9,3.54-23.42,10.61-38.37,24.73,0,0-23.43-6.82-56.56-6.82s-56.56,6.82-56.56,6.82c-15-14.12-28.47-21.19-38.37-24.73A17.85,17.85,0,0,0,132,49.55a72.67,72.67,0,0,0,1.87,46.88l-22.33,49.64a67,67,0,0,0,25.83,84.59C162.64,246.19,199.48,230.53,250.08,230.53Z"/><path class="cls-10" d="M161.45,218.66c0,4.24,8.93,7.68,20,7.68s19.95-3.44,19.95-7.68S192.42,211,181.4,211,161.45,214.41,161.45,218.66Z"/><path class="cls-11" d="M267.23,231.28c-4-12.55-12.4-17.4-17.16-17.4s-13.12,4.85-17.16,17.4c-4.67,14.54,9.5,1.31,17.37,1.31S271.9,245.82,267.23,231.28Z"/><path class="cls-12" d="M161.45,197.7s39.9,16.9,50.94-16.1"/><path class="cls-12" d="M218.79,184.13s1.89,16.21-11.3,22.78"/><path class="cls-10" d="M338.69,218.66c0,4.24-8.94,7.68-19.95,7.68s-19.95-3.44-19.95-7.68,8.93-7.69,19.95-7.69S338.69,214.41,338.69,218.66Z"/><path class="cls-12" d="M338.69,197.7s-39.9,16.9-50.94-16.1"/><path class="cls-12" d="M281.34,184.13s-1.88,16.21,11.31,22.78"/><path class="cls-12" d="M125.15,194.54s-45.44-7.18-82.44,20.16"/><path class="cls-12" d="M129.22,211.2s-40.47-.38-64.88,29.57"/><path class="cls-12" d="M138.54,222.63s-26.74,6.54-40.43,40"/><path class="cls-12" d="M375,194.54s45.44-7.18,82.44,20.16"/><path class="cls-12" d="M370.94,211.2s40.47-.38,64.88,29.57"/><path class="cls-12" d="M361.62,222.63s26.74,6.54,40.43,40"/><g id="_Grupo_" data-name="&lt;Grupo&gt;"><path class="cls-10" d="M142.83,76A61,61,0,0,1,145,53.29a4.42,4.42,0,0,1,4.28-3.2,4.71,4.71,0,0,1,1.56.28,84.66,84.66,0,0,1,19.26,10.11Z"/><path class="cls-11" d="M142.83,76A61,61,0,0,1,145,53.29a4.42,4.42,0,0,1,4.28-3.2,4.71,4.71,0,0,1,1.56.28,84.66,84.66,0,0,1,19.26,10.11Z"/><path class="cls-11" d="M357.33,76a61,61,0,0,0-2.2-22.72,4.42,4.42,0,0,0-4.28-3.2,4.71,4.71,0,0,0-1.56.28A84.66,84.66,0,0,0,330,60.48Z"/></g><path class="cls-13" d="M200.37,172.55a18.09,18.09,0,1,1-36.18,0Z"/><line class="cls-14" x1="138.81" y1="170.43" x2="215.15" y2="170.43"/><path class="cls-13" d="M299.79,172.55a18.09,18.09,0,0,0,36.18,0Z"/><line class="cls-14" x1="361.35" y1="170.43" x2="285.01" y2="170.43"/></svg>