<svg id="Camada_1" data-name="Camada 1" xmlns="http://www.w3.org/2000/svg" xmlns:xlink="http://www.w3.org/1999/xlink" viewBox="0 0 500 300"><defs><style>.cls-1,.cls-4{fill:#fffad6;}.cls-1,.cls-11,.cls-12,.cls-13,.cls-14,.cls-5{stroke:#555659;}.cls-1,.cls-5{stroke-miterlimit:10;}.cls-1,.cls-11,.cls-12,.cls-13,.cls-5{stroke-width:2px;}.cls-2{fill:#fff;}.cls-12,.cls-3,.cls-5{fill:none;}.cls-3{stroke:#c9cbca;}.cls-11,.cls-12,.cls-13,.cls-14,.cls-3{stroke-linecap:round;stroke-linejoin:round;}.cls-6{clip-path:url(#clip-path);}.cls-7{fill:#e2a14c;}.cls-8{fill:#cfc5b2;}.cls-11,.cls-14,.cls-9{fill:#555659;}.cls-10,.cls-13{fill:#feafba;}.cls-14{stroke-width:4px;}</style><clipPath id="clip-path"><path id="_Caminho_de_recorte_" data-name="&lt;Caminho de recorte&gt;" class="cls-1" d="M249,246.29c53.11,0,91.78,16.43,118.36.14a70.33,70.33,0,0,0,27.11-88.8l-23.44-52.1a76.23,76.23,0,0,0,2-49.21,18.74,18.74,0,0,0-24.35-12.4c-10.39,3.72-24.58,11.14-40.28,26,0,0-24.59-7.16-59.36-7.16s-59.37,7.16-59.37,7.16c-15.7-14.82-29.88-22.24-40.28-26A18.75,18.75,0,0,0,125,56.32a76.24,76.24,0,0,0,2,49.21l-23.45,52.1a70.32,70.32,0,0,0,27.12,88.8C157.23,262.72,195.9,246.29,249,246.29Z"/></clipPath></defs><title>cat12</title><path class="cls-2" d="M33.47,215.32A21.39,21.39,0,0,0,34.86,239,21.36,21.36,0,0,0,64,243.75l-.37.5a21.36,21.36,0,0,0,17.27,33.93,21.43,21.43,0,0,0,17.29-8.8,60.19,60.19,0,0,1,11-11.67A90.37,90.37,0,0,0,119.41,265c11.52,7.07,24.76,10.36,41.67,10.36,11.77,0,24.26-1.58,37.49-3.27,15-1.91,32.09-4.07,50.36-4.07s35.32,2.16,50.39,4.08c13.22,1.68,25.7,3.26,37.47,3.26,16.9,0,30.14-3.29,41.67-10.36a90.53,90.53,0,0,0,11.27-8.16,60.14,60.14,0,0,1,12.08,12.53,21.36,21.36,0,1,0,34.57-25.11l-.38-.52A21.35,21.35,0,0,0,465.13,239a21.44,21.44,0,0,0,1.4-23.68,21.37,21.37,0,0,0,5.36-40.88,132.16,132.16,0,0,0-51.3-10h-1.4a91.91,91.91,0,0,0-5.3-15.2l-20-44.52a98.19,98.19,0,0,0-.4-54,40.13,40.13,0,0,0-52.06-26.56c-13.31,4.76-26.38,12.4-38.95,22.76a277.87,277.87,0,0,0-107,0c-12.58-10.36-25.65-18-39-22.76a40.12,40.12,0,0,0-52,26.56,98.08,98.08,0,0,0-.41,54L84,149.23a92.8,92.8,0,0,0-5.29,15.2,132,132,0,0,0-50.59,10,21.37,21.37,0,0,0,5.38,40.88Z"/><path class="cls-3" d="M33.47,215.32A21.39,21.39,0,0,0,34.86,239,21.36,21.36,0,0,0,64,243.75l-.37.5a21.36,21.36,0,0,0,17.27,33.93,21.43,21.43,0,0,0,17.29-8.8,60.19,60.19,0,0,1,11-11.67A90.37,90.37,0,0,0,119.41,265c11.52,7.07,24.76,10.36,41.67,10.36,11.77,0,24.26-1.58,37.49-3.27,15-1.91,32.09-4.07,50.36-4.07s35.32,2.16,50.39,4.08c13.22,1.68,25.7,3.26,37.47,3.26,16.9,0,30.14-3.29,41.67-10.36a90.53,90.53,0,0,0,11.27-8.16,60.14,60.14,0,0,1,12.08,12.53,21.36,21.36,0,1,0,34.57-25.11l-.38-.52A21.35,21.35,0,0,0,465.13,239a21.44,21.44,0,0,0,1.4-23.68,21.37,21.37,0,0,0,5.36-40.88,132.16,132.16,0,0,0-51.3-10h-1.4a91.91,91.91,0,0,0-5.3-15.2l-20-44.52a98.19,98.19,0,0,0-.4-54,40.13,40.13,0,0,0-52.06-26.56c-13.31,4.76-26.38,12.4-38.95,22.76a277.87,277.87,0,0,0-107,0c-12.58-10.36-25.65-18-39-22.76a40.12,40.12,0,0,0-52,26.56,98.08,98.08,0,0,0-.41,54L84,149.23a92.8,92.8,0,0,0-5.29,15.2,132,132,0,0,0-50.59,10,21.37,21.37,0,0,0,5.38,40.88Z"/><path id="_Caminho_de_recorte_2" data-name="&lt;Caminho de recorte&gt;" class="cls-4" d="M249,246.29c53.11,0,91.78,16.43,118.36.14a70.33,70.33,0,0,0,27.11-88.8l-23.44-52.1a76.23,76.23,0,0,0,2-49.21,18.74,18.74,0,0,0-24.35-12.4c-10.39,3.72-24.58,11.14-40.28,26,0,0-24.59-7.16-59.36-7.16s-59.37,7.16-59.37,7.16c-15.7-14.82-29.88-22.24-40.28-26A18.75,18.75,0,0,0,125,56.32a76.24,76.24,0,0,0,2,49.21l-23.45,52.1a70.32,70.32,0,0,0,27.12,88.8C157.23,262.72,195.9,246.29,249,246.29Z"/><path id="_Caminho_de_recorte_3" data-name="&lt;Caminho de recorte&gt;" class="cls-5" d="M249,246.29c53.11,0,91.78,16.43,118.36.14a70.33,70.33,0,0,0,27.11-88.8l-23.44-52.1a76.23,76.23,0,0,0,2-49.21,18.74,18.74,0,0,0-24.35-12.4c-10.39,3.72-24.58,11.14-40.28,26,0,0-24.59-7.16-59.36-7.16s-59.37,7.16-59.37,7.16c-15.7-14.82-29.88-22.24-40.28-26A18.75,18.75,0,0,0,125,56.32a76.24,76.24,0,0,0,2,49.21l-23.45,52.1a70.32,70.32,0,0,0,27.12,88.8C157.23,262.72,195.9,246.29,249,246.29Z"/><path id="_Caminho_de_recorte_4" data-name="&lt;Caminho de recorte&gt;" class="cls-4" d="M249,246.29c53.11,0,91.78,16.43,118.36.14a70.33,70.33,0,0,0,27.11-88.8l-23.44-52.1a76.23,76.23,0,0,0,2-49.21,18.74,18.74,0,0,0-24.35-12.4c-10.39,3.72-24.58,11.14-40.28,26,0,0-24.59-7.16-59.36-7.16s-59.37,7.16-59.37,7.16c-15.7-14.82-29.88-22.24-40.28-26A18.75,18.75,0,0,0,125,56.32a76.24,76.24,0,0,0,2,49.21l-23.45,52.1a70.32,70.32,0,0,0,27.12,88.8C157.23,262.72,195.9,246.29,249,246.29Z"/><g class="cls-6"><ellipse class="cls-7" cx="379.67" cy="26.94" rx="106.86" ry="107.02"/><ellipse class="cls-8" cx="119.93" cy="26.94" rx="106.86" ry="107.02"/><path class="cls-9" d="M237.3,63.63l7.1,62.87c.87,7.71,8.37,7.71,9.24,0l7.09-62.87Z"/><path class="cls-9" d="M218.31,61.9l2.4,23.59c.8,7.86,8.47,7.86,9.27,0l2.39-23.59Z"/><path class="cls-9" d="M279.72,61.9l-2.4,23.59c-.79,7.86-8.46,7.86-9.26,0l-2.4-23.59Z"/></g><path id="_Caminho_de_recorte_5" data-name="&lt;Caminho de recorte&gt;" class="cls-5" d="M249,246.29c53.11,0,91.78,16.43,118.36.14a70.33,70.33,0,0,0,27.11-88.8l-23.44-52.1a76.23,76.23,0,0,0,2-49.21,18.74,18.74,0,0,0-24.35-12.4c-10.39,3.72-24.58,11.14-40.28,26,0,0-24.59-7.16-59.36-7.16s-59.37,7.16-59.37,7.16c-15.7-14.82-29.88-22.24-40.28-26A18.75,18.75,0,0,0,125,56.32a76.24,76.24,0,0,0,2,49.21l-23.45,52.1a70.32,70.32,0,0,0,27.12,88.8C157.23,262.72,195.9,246.29,249,246.29Z"/><ellipse class="cls-10" cx="321.1" cy="217.69" rx="20.94" ry="8.07"/><ellipse class="cls-10" cx="176.93" cy="217.69" rx="20.94" ry="8.07"/><path class="cls-9" d="M279.47,203.77a35.3,35.3,0,0,1-7.19,4.26,29.2,29.2,0,0,1-8.16,2.28,19.26,19.26,0,0,1-8.57-.84,18.45,18.45,0,0,1-7.26-4.76h1.45a18.45,18.45,0,0,1-7.26,4.76,19.25,19.25,0,0,1-8.57.84,28.54,28.54,0,0,1-8.16-2.28A39.85,39.85,0,0,1,222,206.1a28.69,28.69,0,0,1-3.46-2.33,43,43,0,0,0,7.55,3.35,31.7,31.7,0,0,0,7.94,1.64,18.76,18.76,0,0,0,7.79-1.07,17,17,0,0,0,6.45-4.35,1,1,0,0,1,1.42,0l0,0a16.91,16.91,0,0,0,6.45,4.35,18.64,18.64,0,0,0,7.8,1.07,31.36,31.36,0,0,0,7.94-1.64A42.19,42.19,0,0,0,279.47,203.77Z"/><polygon class="cls-11" points="243.44 197.12 249.02 203.76 254.59 197.12 243.44 197.12"/><path class="cls-12" d="M125.52,193.78s-44.54-18.65-89.08,0"/><path class="cls-12" d="M125.52,211.79s-41.17-10.48-73.53,14"/><path class="cls-12" d="M132.17,225.76s-28.89,0-51.19,30.69"/><path class="cls-12" d="M374.64,193.78s44.54-18.65,89.08,0"/><path class="cls-12" d="M374.64,211.79s41.17-10.48,73.53,14"/><path class="cls-12" d="M368,225.76s28.89,0,51.19,30.69"/><g id="_Grupo_" data-name="&lt;Grupo&gt;"><path class="cls-10" d="M136.45,84.1a64,64,0,0,1,2.3-23.86,4.64,4.64,0,0,1,4.5-3.35,4.92,4.92,0,0,1,1.63.29A88.18,88.18,0,0,1,165.09,67.8Z"/><path class="cls-13" d="M136.45,84.1a64,64,0,0,1,2.3-23.86,4.64,4.64,0,0,1,4.5-3.35,4.92,4.92,0,0,1,1.63.29A88.18,88.18,0,0,1,165.09,67.8Z"/><path class="cls-13" d="M361.59,84.1a64.22,64.22,0,0,0-2.31-23.86,4.64,4.64,0,0,0-4.49-3.35,4.93,4.93,0,0,0-1.64.29A88.18,88.18,0,0,0,332.94,67.8Z"/></g><circle class="cls-14" cx="320.96" cy="169.74" r="9.5"/><circle class="cls-14" cx="176.93" cy="169.74" r="9.5"/></svg>