<svg id="Camada_1" data-name="Camada 1" xmlns="http://www.w3.org/2000/svg" xmlns:xlink="http://www.w3.org/1999/xlink" viewBox="0 0 500 300"><defs><style>.cls-1,.cls-4{fill:#fffad6;}.cls-1,.cls-11,.cls-12,.cls-13,.cls-14,.cls-5{stroke:#555659;}.cls-1,.cls-5{stroke-miterlimit:10;}.cls-1,.cls-11,.cls-12,.cls-14,.cls-5{stroke-width:2px;}.cls-2{fill:#fff;}.cls-12,.cls-13,.cls-3,.cls-5{fill:none;}.cls-3{stroke:#c9cbca;}.cls-11,.cls-12,.cls-13,.cls-14,.cls-3{stroke-linecap:round;stroke-linejoin:round;}.cls-6{clip-path:url(#clip-path);}.cls-7{fill:#e2a14c;}.cls-8{fill:#cfc5b2;}.cls-11,.cls-9{fill:#555659;}.cls-10,.cls-14{fill:#feafba;}.cls-13{stroke-width:4px;}.cls-15{fill:#ed6164;}</style><clipPath id="clip-path"><path id="_Caminho_de_recorte_" data-name="&lt;Caminho de recorte&gt;" class="cls-1" d="M249.06,242.87c50.61,0,87.45,15.65,112.77.13a67,67,0,0,0,25.83-84.6l-22.34-49.63a72.65,72.65,0,0,0,1.88-46.89A17.86,17.86,0,0,0,344,50.07c-9.91,3.54-23.42,10.61-38.38,24.73,0,0-23.42-6.82-56.56-6.82s-56.55,6.82-56.55,6.82c-15-14.12-28.47-21.19-38.38-24.73a17.86,17.86,0,0,0-23.2,11.81,72.65,72.65,0,0,0,1.88,46.89L110.47,158.4A67,67,0,0,0,136.3,243C161.62,258.52,198.46,242.87,249.06,242.87Z"/></clipPath></defs><title>cat10</title><path class="cls-2" d="M43.71,172.65a20.36,20.36,0,0,0,29.08,27.08l-.35.48a20.35,20.35,0,0,0,24,30.87,86.53,86.53,0,0,0,29.14,29.61c11,6.74,23.59,9.87,39.7,9.87,11.21,0,23.11-1.51,35.71-3.11,14.33-1.82,30.58-3.88,48-3.88,3.77,0,7.66.1,11.73.3L310.8,271l22.91-.43c15.61-.13,27.93-3.28,38.67-9.86A86.6,86.6,0,0,0,402,230.37a20.35,20.35,0,0,0,25.59-30.15c-.11-.16-.23-.32-.36-.49A20.36,20.36,0,0,0,455,195.21a20.44,20.44,0,0,0,1.33-22.56,20.36,20.36,0,0,0,5.11-38.94,125.81,125.81,0,0,0-48.86-9.54,144.77,144.77,0,0,0-17.71,1.09L387.05,108a93.44,93.44,0,0,0-.39-51.42,38.23,38.23,0,0,0-49.6-25.31c-12.67,4.53-25.12,11.81-37.1,21.69a264.42,264.42,0,0,0-101.95,0c-12-9.88-24.43-17.16-37.12-21.69a38.21,38.21,0,0,0-49.58,25.3,93.48,93.48,0,0,0-.39,51.43L103.24,125a144.87,144.87,0,0,0-15.79-.87,125.81,125.81,0,0,0-48.86,9.54,20.36,20.36,0,0,0,5.12,38.94Z"/><path class="cls-3" d="M43.71,172.65a20.36,20.36,0,0,0,29.08,27.08l-.35.48a20.35,20.35,0,0,0,24,30.87,86.53,86.53,0,0,0,29.14,29.61c11,6.74,23.59,9.87,39.7,9.87,11.21,0,23.11-1.51,35.71-3.11,14.33-1.82,30.58-3.88,48-3.88,3.77,0,7.66.1,11.73.3L310.8,271l22.91-.43c15.61-.13,27.93-3.28,38.67-9.86A86.6,86.6,0,0,0,402,230.37a20.35,20.35,0,0,0,25.59-30.15c-.11-.16-.23-.32-.36-.49A20.36,20.36,0,0,0,455,195.21a20.44,20.44,0,0,0,1.33-22.56,20.36,20.36,0,0,0,5.11-38.94,125.81,125.81,0,0,0-48.86-9.54,144.77,144.77,0,0,0-17.71,1.09L387.05,108a93.44,93.44,0,0,0-.39-51.42,38.23,38.23,0,0,0-49.6-25.31c-12.67,4.53-25.12,11.81-37.1,21.69a264.42,264.42,0,0,0-101.95,0c-12-9.88-24.43-17.16-37.12-21.69a38.21,38.21,0,0,0-49.58,25.3,93.48,93.48,0,0,0-.39,51.43L103.24,125a144.87,144.87,0,0,0-15.79-.87,125.81,125.81,0,0,0-48.86,9.54,20.36,20.36,0,0,0,5.12,38.94Z"/><path id="_Caminho_de_recorte_2" data-name="&lt;Caminho de recorte&gt;" class="cls-4" d="M249.06,242.87c50.61,0,87.45,15.65,112.77.13a67,67,0,0,0,25.83-84.6l-22.34-49.63a72.65,72.65,0,0,0,1.88-46.89A17.86,17.86,0,0,0,344,50.07c-9.91,3.54-23.42,10.61-38.38,24.73,0,0-23.42-6.82-56.56-6.82s-56.55,6.82-56.55,6.82c-15-14.12-28.47-21.19-38.38-24.73a17.86,17.86,0,0,0-23.2,11.81,72.65,72.65,0,0,0,1.88,46.89L110.47,158.4A67,67,0,0,0,136.3,243C161.62,258.52,198.46,242.87,249.06,242.87Z"/><path id="_Caminho_de_recorte_3" data-name="&lt;Caminho de recorte&gt;" class="cls-5" d="M249.06,242.87c50.61,0,87.45,15.65,112.77.13a67,67,0,0,0,25.83-84.6l-22.34-49.63a72.65,72.65,0,0,0,1.88-46.89A17.86,17.86,0,0,0,344,50.07c-9.91,3.54-23.42,10.61-38.38,24.73,0,0-23.42-6.82-56.56-6.82s-56.55,6.82-56.55,6.82c-15-14.12-28.47-21.19-38.38-24.73a17.86,17.86,0,0,0-23.2,11.81,72.65,72.65,0,0,0,1.88,46.89L110.47,158.4A67,67,0,0,0,136.3,243C161.62,258.52,198.46,242.87,249.06,242.87Z"/><path id="_Caminho_de_recorte_4" data-name="&lt;Caminho de recorte&gt;" class="cls-4" d="M249.06,242.87c50.61,0,87.45,15.65,112.77.13a67,67,0,0,0,25.83-84.6l-22.34-49.63a72.65,72.65,0,0,0,1.88-46.89A17.86,17.86,0,0,0,344,50.07c-9.91,3.54-23.42,10.61-38.38,24.73,0,0-23.42-6.82-56.56-6.82s-56.55,6.82-56.55,6.82c-15-14.12-28.47-21.19-38.38-24.73a17.86,17.86,0,0,0-23.2,11.81,72.65,72.65,0,0,0,1.88,46.89L110.47,158.4A67,67,0,0,0,136.3,243C161.62,258.52,198.46,242.87,249.06,242.87Z"/><g class="cls-6"><ellipse class="cls-7" cx="373.54" cy="20.32" rx="101.81" ry="101.96"/><ellipse class="cls-8" cx="126.08" cy="20.32" rx="101.81" ry="101.96"/><path class="cls-9" d="M237.91,55.28l6.75,59.89c.83,7.35,8,7.35,8.81,0l6.75-59.89Z"/><path class="cls-9" d="M219.82,53.63,222.1,76.1c.76,7.49,8.06,7.49,8.82,0l2.29-22.47Z"/><path class="cls-9" d="M278.31,53.63,276,76.1c-.76,7.49-8.06,7.49-8.82,0l-2.29-22.47Z"/></g><path id="_Caminho_de_recorte_5" data-name="&lt;Caminho de recorte&gt;" class="cls-5" d="M249.06,242.87c50.61,0,87.45,15.65,112.77.13a67,67,0,0,0,25.83-84.6l-22.34-49.63a72.65,72.65,0,0,0,1.88-46.89A17.86,17.86,0,0,0,344,50.07c-9.91,3.54-23.42,10.61-38.38,24.73,0,0-23.42-6.82-56.56-6.82s-56.55,6.82-56.55,6.82c-15-14.12-28.47-21.19-38.38-24.73a17.86,17.86,0,0,0-23.2,11.81,72.65,72.65,0,0,0,1.88,46.89L110.47,158.4A67,67,0,0,0,136.3,243C161.62,258.52,198.46,242.87,249.06,242.87Z"/><ellipse class="cls-10" cx="317.74" cy="174.91" rx="19.95" ry="7.68"/><ellipse class="cls-10" cx="180.39" cy="174.91" rx="19.95" ry="7.68"/><path class="cls-9" d="M278.08,161.64a32.19,32.19,0,0,1-6.84,4.09,28,28,0,0,1-7.78,2.19,18.58,18.58,0,0,1-8.19-.8,17.53,17.53,0,0,1-6.93-4.55h1.45a17.53,17.53,0,0,1-6.93,4.55,18.44,18.44,0,0,1-8.19.8,27.63,27.63,0,0,1-7.78-2.19,31.7,31.7,0,0,1-6.84-4.09,41.8,41.8,0,0,0,7.2,3.17,30.1,30.1,0,0,0,7.56,1.56,18,18,0,0,0,7.41-1,15.92,15.92,0,0,0,6.12-4.14,1,1,0,0,1,1.41,0l0,0a16,16,0,0,0,6.12,4.14,18,18,0,0,0,7.41,1,30.53,30.53,0,0,0,7.56-1.55A42.28,42.28,0,0,0,278.08,161.64Z"/><path class="cls-10" d="M249.82,187.23A7.86,7.86,0,0,1,242,181l-3.06-12.91c4.72-.47,8.56-3.45,10.12-4.84a18.4,18.4,0,0,0,12.21,4.93l-3.69,13.14A7.9,7.9,0,0,1,249.82,187.23Z"/><path class="cls-9" d="M249,164.62A19.36,19.36,0,0,0,260,169.15l-3.36,11.94a6.81,6.81,0,0,1-6.77,5.14,6.89,6.89,0,0,1-6.87-5.42L240.15,169a20.27,20.27,0,0,0,8.87-4.36m0-2.73s-5.08,5.31-11.33,5.31h-.06L241,181.27a9,9,0,0,0,17.51.36l4.06-14.44a8.29,8.29,0,0,1-.9,0,17.45,17.45,0,0,1-12.62-5.34Z"/><polygon class="cls-11" points="243.75 155.31 249.06 161.64 254.38 155.31 243.75 155.31"/><path class="cls-12" d="M131.41,152.13s-42.43-17.77-84.87,0"/><path class="cls-12" d="M131.41,169.29s-39.22-10-70,13.31"/><path class="cls-12" d="M137.75,182.6s-27.53,0-48.77,29.24"/><path class="cls-12" d="M368.75,152.13s42.43-17.77,84.86,0"/><path class="cls-12" d="M368.75,169.29s39.22-10,70.05,13.31"/><path class="cls-12" d="M362.41,182.6s27.53,0,48.77,29.24"/><path class="cls-13" d="M213.86,138.17s-33.47-40.23-67,0"/><path class="cls-13" d="M284.27,138.17s33.47-40.23,67,0"/><g id="_Grupo_" data-name="&lt;Grupo&gt;"><path class="cls-10" d="M141.82,88.34A61,61,0,0,1,144,65.62a4.41,4.41,0,0,1,4.28-3.19,4.64,4.64,0,0,1,1.55.27,84.17,84.17,0,0,1,19.26,10.12Z"/><path class="cls-14" d="M141.82,88.34A61,61,0,0,1,144,65.62a4.41,4.41,0,0,1,4.28-3.19,4.64,4.64,0,0,1,1.55.27,84.17,84.17,0,0,1,19.26,10.12Z"/><path class="cls-14" d="M356.31,88.34a61,61,0,0,0-2.2-22.72,4.41,4.41,0,0,0-4.28-3.19,4.64,4.64,0,0,0-1.55.27A84.17,84.17,0,0,0,329,72.82Z"/></g><path class="cls-1" d="M329,252.55s-9.53-82.61-72.84-66.3c-26.53,6.84-21.37,39.19,8.59,39.19l13.31,27.11"/><path class="cls-15" d="M264.48,190.52a7.29,7.29,0,0,1-4.28-1.6,14.93,14.93,0,0,1-1.87-2.29c-1.56-2.16-3.18-4.39-5.13-4.39a2.46,2.46,0,0,0-1.18.3,7.78,7.78,0,0,1-3.44,1.05,1.41,1.41,0,0,1-.73-.14c-1.31-.93-2.73-2.46-2.08-4.48.74-2.31,4.16-4.77,9-4.77a15.37,15.37,0,0,1,11.23,5.11c2.53,2.62,3.65,5.31,3.13,7.57a4.83,4.83,0,0,1-4.7,3.64Z"/><path class="cls-9" d="M254.82,175.2a14.39,14.39,0,0,1,10.51,4.8c2.29,2.38,3.32,4.74,2.88,6.66a3.85,3.85,0,0,1-3.73,2.86,6.29,6.29,0,0,1-3.67-1.4,15.07,15.07,0,0,1-1.67-2.08c-1.63-2.25-3.48-4.8-5.94-4.8a3.43,3.43,0,0,0-1.65.42,6.67,6.67,0,0,1-3,.93l-.25,0c-1.43-1-2-2.16-1.61-3.29.64-2,3.85-4.08,8.1-4.08m0-2c-8,0-13.84,6.58-7.55,11.07a2.26,2.26,0,0,0,1.31.32,8.82,8.82,0,0,0,3.92-1.17,1.49,1.49,0,0,1,.7-.18c2.26,0,4.74,5.2,6.39,6.47a8.27,8.27,0,0,0,4.89,1.81,5.64,5.64,0,0,0,2-.35c4.12-1.53,5.9-6.76.3-12.56a16.52,16.52,0,0,0-11.95-5.41Z"/></svg>